<svg width="565" height="400" viewBox="0 0 565 400" fill="none" xmlns="http://www.w3.org/2000/svg">
<g clip-path="url(#clip0)">
<path fill-rule="evenodd" clip-rule="evenodd" d="M372.253 357.626C329.822 357.626 290.232 350.753 254.674 340.03C409.827 339.481 542.71 292.468 542.71 154.178C542.71 152.621 542.618 151.154 542.526 149.688C589.539 206.232 548.117 342.321 410.285 355.793C397.363 357.076 384.716 357.626 372.253 357.626ZM66.2549 179.105C67.0797 146.755 84.1254 112.481 132.055 97.0849C142.227 93.8774 152.491 92.4111 162.572 92.4111C205.92 92.4111 247.068 118.254 268.879 134.75C273.827 138.416 278.868 141.807 284.183 144.739C263.655 144.648 244.227 139.607 224.523 134.567C204.637 129.527 184.383 124.395 162.297 124.395C116.292 124.395 86.0499 133.101 66.2549 179.105Z" fill="#DCDEE9"/>
<path fill-rule="evenodd" clip-rule="evenodd" d="M109.694 94.1525C109.052 94.1525 108.319 94.0608 107.495 93.7859C103.646 90.8533 105.387 86.0879 109.052 85.3547C109.327 85.3547 109.602 85.3547 109.877 85.3547C111.71 85.3547 113.36 86.4545 114.001 88.1957C115.101 91.0366 112.993 94.1525 109.694 94.1525Z" fill="#D1D4E4"/>
<path fill-rule="evenodd" clip-rule="evenodd" d="M539.319 76.9235C534.37 76.9235 530.43 72.9828 530.43 68.0341C530.43 63.0854 534.37 59.0531 539.319 59.0531C544.268 59.0531 548.3 63.0854 548.3 68.0341C548.3 72.9828 544.268 76.9235 539.319 76.9235Z" fill="#D1D4E4"/>
<path fill-rule="evenodd" clip-rule="evenodd" d="M127.473 89.845C123.532 89.845 119.867 87.1874 118.767 83.2467C117.392 78.3896 120.233 73.4409 125.09 72.0663C125.915 71.7913 126.648 71.6997 127.473 71.6997C131.414 71.6997 135.079 74.3574 136.179 78.298C137.554 83.1551 134.713 88.1038 129.947 89.4784C129.122 89.7534 128.298 89.845 127.473 89.845Z" fill="#D6D9E5"/>
<path fill-rule="evenodd" clip-rule="evenodd" d="M522.457 59.7862C519.432 59.7862 516.958 57.3119 516.958 54.2876C516.958 51.2634 519.432 48.7891 522.457 48.7891C525.481 48.7891 527.955 51.2634 527.955 54.2876C527.955 57.3119 525.481 59.7862 522.457 59.7862Z" fill="#D1D4E4"/>
<path fill-rule="evenodd" clip-rule="evenodd" d="M252.108 340.03C243.311 340.03 234.513 339.847 225.623 339.572C68.7298 334.532 40.5036 238.948 66.2554 179.105C65.8888 196.609 70.1961 213.655 76.9777 226.76C90.0827 252.053 157.349 310.521 254.674 340.03C253.85 340.03 252.933 340.03 252.108 340.03ZM350.534 162.06C344.027 162.06 337.062 161.602 329.731 160.502C313.785 158.119 298.297 152.712 284.184 144.739C284.459 144.739 284.642 144.739 284.917 144.739C290.874 144.739 296.831 144.373 302.971 143.365C367.946 133.559 374.544 47.4144 443.918 47.4144C445.201 47.4144 446.576 47.5061 447.951 47.5061C448.867 47.5977 449.692 47.5977 450.608 47.6894C500.096 50.8052 540.144 101.667 542.527 149.688C535.47 141.074 526.306 134.384 515.217 130.168C503.028 125.494 492.123 123.57 482.042 123.57C459.498 123.57 441.077 133.192 421.099 142.815C401.121 152.437 379.493 162.06 350.534 162.06Z" fill="#AEA5DE"/>
<path fill-rule="evenodd" clip-rule="evenodd" d="M254.674 340.03C157.349 310.521 90.0824 252.053 76.9774 226.76C70.1958 213.655 65.8885 196.609 66.2551 179.105C97.5972 106.341 161.748 118.621 224.523 134.567C244.227 139.607 263.655 144.648 284.183 144.739C298.296 152.712 313.784 158.119 329.73 160.502C337.062 161.602 344.027 162.06 350.533 162.06C379.493 162.06 401.121 152.437 421.099 142.815C441.077 133.192 459.497 123.57 482.042 123.57C492.123 123.57 503.028 125.494 515.217 130.168C526.306 134.384 535.47 141.074 542.526 149.688C542.618 151.154 542.71 152.621 542.71 154.179C542.71 292.468 409.827 339.481 254.674 340.03Z" fill="#AEA5DE"/>
<path d="M144.335 141.165C144.335 141.165 139.203 136.95 131.138 149.413C123.074 161.968 119.775 169.3 119.775 169.3C119.775 169.3 117.667 171.866 115.926 169.849C114.276 167.833 112.168 162.426 108.869 163.068C105.387 163.709 103.92 167.283 104.012 172.874C104.104 178.372 103.829 190.561 103.829 191.66C103.737 192.76 103.004 194.226 101.629 193.035C100.255 191.935 92.6484 181.488 87.8829 185.337C83.2091 189.278 85.9584 204.674 86.2334 206.415C86.4166 208.065 86.0501 208.706 85.2253 209.073C84.4005 209.439 82.2011 205.682 79.91 202.749C77.6189 199.908 74.5031 196.976 71.9371 199.45C69.3711 201.924 67.5382 213.105 76.3359 232.442L81.0097 241.148L90.9988 241.606C112.26 241.331 121.516 234.824 122.707 231.525C123.807 228.134 119.866 226.576 116.292 225.752C112.718 224.835 108.319 224.469 108.319 223.552C108.228 222.727 108.686 222.086 110.335 221.536C111.985 221.078 127.106 216.954 128.572 211.089C130.039 205.132 117.392 202.749 115.742 201.924C114.093 201.191 115.101 199.817 116.109 199.358C117.117 198.9 127.931 193.402 132.971 191.111C138.012 188.819 140.669 185.887 139.753 182.588C138.836 179.289 133.155 179.747 130.589 179.014C128.023 178.372 129.489 175.348 129.489 175.348C129.489 175.348 134.712 169.208 142.502 156.561C150.383 144.006 144.243 141.073 144.243 141.073L144.335 141.165Z" fill="#2D3167"/>
<path d="M79.2686 242.797C85.0421 233.541 95.6726 217.229 104.654 203.207C113.635 189.186 121.791 176.448 127.656 167.283C130.497 162.61 132.88 158.944 134.529 156.286C135.354 155.003 135.996 154.087 136.454 153.354C136.637 152.987 136.82 152.804 136.912 152.621C137.004 152.437 137.095 152.346 137.095 152.346C137.095 152.346 137.004 152.437 136.912 152.621C136.82 152.804 136.637 153.079 136.454 153.354C135.996 154.087 135.446 155.095 134.621 156.378C133.063 159.036 130.68 162.793 127.839 167.375C122.066 176.631 113.91 189.369 104.929 203.391C95.9476 217.412 85.317 233.633 79.4518 242.889L79.2686 242.797Z" fill="#7FAEF2"/>
<path d="M111.435 170.674C111.527 170.674 111.527 170.949 111.618 171.407C111.71 171.865 111.893 172.507 111.985 173.332C112.26 174.89 112.626 177.181 112.993 179.655C113.268 182.129 113.543 184.329 113.726 185.978C113.818 186.803 113.909 187.445 114.001 187.903C114.093 188.361 114.093 188.636 114.093 188.636C114.093 188.636 114.001 188.361 113.909 187.995C113.818 187.536 113.726 186.895 113.543 186.07C113.268 184.421 112.993 182.129 112.626 179.655C112.351 177.272 111.985 175.073 111.802 173.332C111.71 172.599 111.618 171.957 111.527 171.407C111.435 170.949 111.435 170.674 111.435 170.674Z" fill="#7FAEF2"/>
<path d="M115.009 188.911C114.917 188.819 119.591 187.903 125.273 186.895C130.955 185.887 135.537 185.154 135.537 185.245C135.537 185.337 130.955 186.162 125.273 187.17C119.591 188.269 115.009 189.003 115.009 188.911Z" fill="#7FAEF2"/>
<path d="M100.163 209.806C100.163 209.806 100.438 209.806 100.896 209.897C101.446 209.897 102.088 209.989 102.912 210.081C104.562 210.264 106.853 210.447 109.419 210.631C111.893 210.814 114.276 210.906 115.926 210.906C116.75 210.906 117.392 210.906 117.942 210.997C118.4 210.997 118.583 210.997 118.583 210.997C118.583 210.997 118.4 211.089 117.942 211.089C117.392 211.089 116.75 211.089 115.926 211.089C114.276 211.18 111.893 211.089 109.327 210.906C106.853 210.814 104.47 210.539 102.821 210.264C101.996 210.172 101.354 210.081 100.896 209.989C100.438 209.897 100.163 209.806 100.163 209.806Z" fill="#7FAEF2"/>
<path d="M93.3813 194.043C93.3813 194.043 93.473 194.226 93.7479 194.685C93.9312 195.051 94.2061 195.601 94.4811 196.334C95.1226 197.709 96.039 199.633 97.0471 201.833C97.9635 203.941 98.7883 205.957 99.4298 207.331C99.7047 207.973 99.9796 208.614 100.163 209.073C100.255 209.439 100.346 209.622 100.346 209.622C100.346 209.714 100.255 209.439 99.9796 209.073C99.7963 208.614 99.5214 208.064 99.2465 207.423C98.605 206.048 97.6886 204.124 96.6805 201.924C95.7641 199.725 94.9393 197.8 94.2978 196.426C94.0228 195.693 93.7479 195.143 93.5646 194.685C93.473 194.318 93.3813 194.043 93.3813 194.043Z" fill="#7FAEF2"/>
<path d="M77.9854 210.814C77.9854 210.814 78.1686 211.089 78.3519 211.639C78.6269 212.188 78.9934 212.83 79.4516 213.746C80.2764 215.488 81.3761 217.962 82.6591 220.711C83.9421 223.461 85.0419 226.027 85.8666 227.768C86.2332 228.684 86.5081 229.417 86.7831 229.967C86.9664 230.517 87.1496 230.792 87.058 230.792C87.058 230.792 86.9664 230.517 86.6914 230.059C86.4165 229.509 86.0499 228.776 85.6834 227.859C84.8586 226.118 83.6672 223.644 82.3842 220.895C81.1012 218.145 80.0015 215.671 79.1767 213.838C78.8101 212.922 78.5352 212.188 78.2603 211.639C78.077 211.18 77.9854 210.814 77.9854 210.814Z" fill="#7FAEF2"/>
<path d="M87.0581 230.242C87.0581 230.242 87.333 230.242 87.9745 230.242C88.616 230.334 89.4408 230.334 90.4489 230.425C92.5567 230.609 95.4893 230.792 98.6968 230.884C101.996 230.975 104.928 231.067 107.036 231.067C108.044 231.067 108.869 231.067 109.511 231.067C110.152 231.067 110.427 231.067 110.427 231.067C110.427 231.159 110.152 231.159 109.511 231.159C108.961 231.25 108.044 231.25 107.036 231.25C104.928 231.342 101.996 231.342 98.6968 231.159C95.4893 231.067 92.5567 230.884 90.4489 230.7C89.3492 230.517 88.5244 230.425 87.9745 230.425C87.333 230.334 87.0581 230.242 87.0581 230.242Z" fill="#7FAEF2"/>
<path d="M63.4139 176.173C63.4139 176.173 63.5972 177.731 63.2306 180.663C62.7724 183.596 61.856 187.995 59.1067 192.852L58.9234 192.669H59.015H59.1983L59.1067 192.852C53.0583 203.482 44.0772 219.337 33.355 238.398L33.1717 238.673L32.9884 238.398C24.8322 225.385 15.5763 210.631 5.86214 195.051C5.40392 194.318 4.94571 193.585 4.48749 192.943L4.30421 192.577H4.67078L4.48749 192.943C2.47135 189.369 1.0967 185.429 0.455201 181.488C0.0886295 179.472 -0.0946564 177.547 -0.00301345 175.531C0.0886295 174.523 0.0886295 173.607 0.180272 172.599C0.363558 171.591 0.455201 170.674 0.638487 169.666C2.10477 162.06 6.22871 155.278 11.7273 150.696C14.4766 148.405 17.5008 146.664 20.6167 145.472L21.808 145.014L22.4495 144.831L22.9994 144.648C23.8242 144.464 24.6489 144.189 25.3821 144.006C27.0317 143.731 28.5896 143.456 30.2392 143.456C31.7971 143.273 33.355 143.456 34.8213 143.548C35.6461 143.548 36.3792 143.731 37.1124 143.823C37.479 143.914 37.8455 144.006 38.2121 144.006C38.5787 144.098 38.9452 144.189 39.3118 144.281C39.9533 144.464 40.6865 144.648 41.4196 144.923C42.0611 145.106 42.7026 145.381 43.3441 145.656C43.7107 145.747 44.0772 145.839 44.3522 146.022C44.6271 146.206 44.9937 146.297 45.2686 146.48C45.9101 146.755 46.46 147.122 47.1015 147.397C51.7753 150.146 55.2577 153.629 57.6404 157.111C60.1148 160.685 61.3978 164.168 62.2225 167.008C62.5891 168.475 62.9557 169.758 63.0473 170.857C63.2306 172.049 63.4139 172.965 63.4139 173.79C63.4139 174.523 63.4139 175.165 63.4139 175.531C63.4139 175.989 63.4139 176.173 63.4139 176.173C63.4139 176.173 63.4139 175.989 63.4139 175.531C63.4139 175.165 63.3223 174.523 63.3223 173.79C63.3223 172.965 63.139 172.049 62.9557 170.857C62.8641 169.758 62.4975 168.475 62.1309 167.008C61.2145 164.168 59.9315 160.777 57.4571 157.294C55.0744 153.812 51.592 150.329 46.9182 147.672C46.3683 147.397 45.7268 147.03 45.177 146.755C44.8104 146.572 44.5355 146.48 44.2605 146.297C43.894 146.206 43.619 146.022 43.2525 145.931C42.611 145.656 41.9695 145.472 41.328 145.197C40.5948 145.014 39.8617 144.831 39.2202 144.648C38.8536 144.556 38.487 144.464 38.1205 144.373C37.7539 144.281 37.3873 144.281 37.0207 144.189C36.2876 144.098 35.5545 143.914 34.8213 143.823C33.355 143.823 31.7971 143.64 30.2392 143.823C28.6812 143.823 27.1233 144.098 25.4737 144.373C24.7406 144.556 23.9158 144.831 23.091 145.014L22.5412 145.197L21.9913 145.381L20.7999 145.839C17.6841 147.03 14.6599 148.772 12.0022 151.063C6.59528 155.553 2.47135 162.243 1.00506 169.758C0.913416 170.674 0.73013 171.682 0.638487 172.599C0.546844 173.607 0.455201 174.523 0.455201 175.531C0.363558 177.456 0.546844 179.472 0.821773 181.396C1.46327 185.337 2.83792 189.186 4.85406 192.76L5.03735 193.035H4.67078L4.85406 192.76C5.31228 193.402 5.77049 194.135 6.22871 194.868C15.9429 210.447 25.1988 225.202 33.355 238.215H32.9884C43.8023 219.245 52.875 203.299 58.9234 192.76L59.015 192.852H58.7401L58.8318 192.76C61.6727 187.903 62.6808 183.596 63.0473 180.663C63.3223 179.197 63.3223 178.097 63.4139 177.364C63.4139 176.906 63.4139 176.631 63.4139 176.448C63.4139 176.264 63.4139 176.173 63.4139 176.173Z" fill="#FF151F"/>
<path d="M51.9585 175.806C51.8668 175.806 51.8668 175.715 51.8668 175.44C51.8668 175.256 51.8668 174.89 51.7752 174.523C51.7752 174.34 51.7752 174.065 51.7752 173.79C51.7752 173.607 51.6836 173.332 51.5919 172.965C51.5003 172.415 51.4086 171.682 51.2253 170.949C50.8588 169.391 50.1256 167.558 49.0259 165.634C47.8346 163.709 46.185 161.693 43.8939 159.952C41.6945 158.211 38.8535 156.836 35.5544 156.195C32.2553 155.645 28.5895 155.736 25.1071 157.019C24.1907 157.294 23.3659 157.753 22.5411 158.211C21.7163 158.669 20.7999 159.127 20.0667 159.769C19.242 160.319 18.5088 160.96 17.7757 161.693C17.1342 162.426 16.401 163.159 15.8512 163.984C14.6598 165.634 13.6517 167.467 13.0102 169.391C12.3687 171.407 12.0022 173.515 11.9105 175.715C12.0022 177.822 12.2771 180.022 12.9186 181.946C13.5601 183.962 14.5682 185.795 15.7595 187.445C16.401 188.27 17.0425 189.003 17.684 189.736C18.5088 190.469 19.1503 191.111 19.9751 191.66C20.7082 192.302 21.6247 192.76 22.4495 193.31C23.2742 193.677 24.099 194.135 25.0155 194.41C28.4979 195.784 32.1636 195.876 35.4628 195.326C38.7619 194.776 41.6028 193.31 43.8023 191.66C46.0933 189.919 47.7429 187.903 48.9343 185.979C50.1256 184.054 50.8588 182.221 51.2253 180.663C51.4086 179.93 51.5003 179.197 51.5919 178.647C51.6836 178.281 51.6836 178.006 51.7752 177.822C51.7752 177.547 51.7752 177.273 51.7752 177.089C51.8668 176.723 51.8668 176.356 51.8668 176.173C51.8668 175.898 51.8668 175.806 51.9585 175.806C51.9585 175.806 51.9585 175.898 51.9585 176.173C51.8668 176.356 51.8668 176.723 51.8668 177.089C51.8668 177.273 51.8668 177.547 51.8668 177.822C51.8668 178.097 51.7752 178.372 51.7752 178.647C51.6836 179.289 51.5919 179.93 51.317 180.755C51.0421 182.313 50.3089 184.146 49.1176 186.162C48.0178 188.086 46.3683 190.103 44.0772 191.844C41.7861 193.585 38.8535 195.051 35.5544 195.693C32.1636 196.243 28.4062 196.151 24.8322 194.776C23.9157 194.501 23.091 194.043 22.1745 193.585C21.3497 193.127 20.525 192.669 19.7002 192.027C18.8754 191.477 18.1422 190.744 17.4091 190.103C16.7676 189.278 16.0345 188.545 15.4846 187.72C14.2016 186.07 13.1935 184.146 12.552 182.13C11.9105 180.113 11.5439 177.914 11.5439 175.715C11.5439 173.515 11.9105 171.316 12.552 169.3C13.1935 167.283 14.2932 165.359 15.4846 163.709C16.1261 162.885 16.8592 162.151 17.5007 161.327C18.2339 160.685 18.967 159.952 19.7918 159.402C20.6166 158.761 21.4414 158.302 22.2662 157.844C23.1826 157.386 24.0074 156.928 24.9238 156.653C28.5895 155.37 32.2553 155.278 35.646 155.828C38.9452 156.47 41.8778 157.936 44.0772 159.677C46.3683 161.418 48.0178 163.526 49.2092 165.451C50.3089 167.467 51.0421 169.3 51.4086 170.858C51.5919 171.682 51.6836 172.324 51.7752 172.965C51.7752 173.24 51.8668 173.515 51.8668 173.79C51.8668 174.065 51.8668 174.34 51.8668 174.523C51.8668 174.89 51.9585 175.256 51.9585 175.44C51.9585 175.715 51.9585 175.806 51.9585 175.806Z" fill="#FF151F"/>
<path d="M31.4306 185.154L19.792 176.998L22.6329 172.965L30.4226 178.372L40.5949 165.542L44.444 168.566L31.4306 185.154Z" fill="#FF151F"/>
<path fill-rule="evenodd" clip-rule="evenodd" d="M353.557 55.8456C342.835 56.2122 335.137 66.2013 337.703 76.7402C339.536 84.4382 346.684 89.9368 354.657 89.6619C365.379 89.2037 372.985 79.2146 370.511 68.7673C368.678 61.0693 361.53 55.5707 353.557 55.8456ZM358.231 34.3095C361.713 34.7677 365.013 35.5925 368.128 36.8755L375.46 30.8271L388.015 40.358L384.074 48.9724C386.182 51.7217 387.923 54.6543 389.206 57.8618L398.737 58.6866L400.845 74.3575L391.956 77.6567C391.497 81.1391 390.581 84.4382 389.298 87.6457L395.438 94.8855L385.907 107.441L377.201 103.5C374.543 105.608 371.519 107.349 368.312 108.632L367.487 118.163L351.908 120.271L348.517 111.381C345.126 110.923 341.735 110.007 338.619 108.724L331.288 114.864L318.733 105.333L322.673 96.6267C320.657 93.9691 318.916 90.9449 317.541 87.7374L308.011 86.9126L305.903 71.3333L314.884 67.9425C315.25 64.5517 316.167 61.1609 317.45 58.0451L311.401 50.7136L320.932 38.1585L329.547 42.1908C332.296 40.083 335.229 38.3418 338.436 36.9672L339.261 27.528L354.932 25.4202L358.231 34.3095Z" fill="#4E35CB"/>
<path fill-rule="evenodd" clip-rule="evenodd" d="M212.976 98.1847C206.012 98.4596 201.063 104.966 202.712 111.748C203.904 116.788 208.578 120.362 213.71 120.179C220.674 119.904 225.623 113.397 223.974 106.616C222.782 101.575 218.108 98.0014 212.976 98.1847ZM216.001 84.2549C218.292 84.5299 220.4 85.0797 222.507 85.9045L227.181 81.9638L235.337 88.1039L232.771 93.7858C234.146 95.527 235.246 97.4515 236.162 99.5593L242.302 100.109L243.677 110.19L237.903 112.389C237.628 114.589 236.987 116.788 236.162 118.804L240.194 123.57L233.963 131.726L228.372 129.16C226.631 130.535 224.615 131.634 222.599 132.459L222.049 138.691L211.877 140.065L209.769 134.2C207.478 133.925 205.278 133.376 203.262 132.551L198.497 136.491L190.432 130.351L192.998 124.669C191.624 122.928 190.432 121.004 189.607 118.896L183.467 118.346L182.093 108.265L187.866 106.066C188.141 103.867 188.691 101.667 189.607 99.6509L185.575 94.8855L191.807 86.7293L197.397 89.2953C199.138 88.0123 201.063 86.8209 203.171 85.9961L203.721 79.7644L213.893 78.3898L216.001 84.2549Z" fill="#4E35CB"/>
<path d="M211.418 205.773C211.418 205.773 212.884 206.323 215.084 208.248C217.191 210.081 219.849 213.563 220.766 218.695C221.132 221.17 221.04 224.102 220.124 227.035C219.116 229.876 217.466 232.808 214.9 235.008C213.617 236.199 212.151 237.115 210.501 237.849C208.852 238.673 207.111 239.223 205.278 239.406C201.52 239.956 197.58 239.223 194.097 237.39C190.615 235.374 187.866 232.442 186.308 229.051C185.575 227.401 185.025 225.568 184.841 223.827C184.567 221.994 184.567 220.253 184.841 218.604C185.391 215.213 186.949 212.188 188.782 209.806C190.707 207.515 193.181 205.865 195.472 204.857C200.237 202.749 204.636 203.207 207.386 204.032C210.135 204.857 211.418 205.773 211.418 205.773C211.326 205.957 209.952 205.04 207.294 204.399C204.636 203.757 200.329 203.482 195.839 205.499C193.548 206.507 191.256 208.065 189.515 210.356C187.682 212.647 186.216 215.488 185.85 218.695C185.575 220.345 185.575 221.994 185.758 223.644C186.033 225.385 186.491 227.035 187.224 228.593C188.69 231.8 191.348 234.641 194.556 236.474C197.855 238.215 201.612 238.948 205.095 238.398C206.836 238.215 208.577 237.757 210.043 237.024C211.601 236.291 213.067 235.374 214.259 234.274C216.733 232.167 218.383 229.417 219.299 226.76C220.216 224.01 220.307 221.17 220.032 218.787C219.299 213.838 216.733 210.447 214.809 208.523C212.793 206.598 211.326 205.865 211.418 205.773Z" fill="#EBECEC"/>
<path d="M230.297 191.477C230.297 191.477 230.297 191.294 230.48 190.927C230.572 190.469 230.755 189.828 230.938 189.094C231.397 187.445 232.038 184.971 232.863 181.855L232.955 182.038C229.289 180.022 224.34 177.364 218.475 174.157H218.75C216.734 176.448 214.534 178.922 212.152 181.671L212.06 181.763H211.877C208.578 180.938 205.003 180.48 201.246 180.572H201.063L200.971 180.388C199.413 177.731 197.764 174.798 196.022 171.682L196.481 171.866C191.532 173.332 186.217 174.89 180.626 176.539L180.901 176.173C181.085 179.197 181.36 182.588 181.543 186.07V186.345L181.36 186.528C178.519 188.178 175.586 190.469 173.02 193.218L172.837 193.402L172.562 193.31C169.629 192.485 166.33 191.477 163.031 190.561L163.489 190.377C161.015 194.868 158.357 199.817 155.608 204.857L155.516 204.307C157.807 206.323 160.373 208.614 162.939 210.905L163.214 211.089L163.123 211.364C162.298 214.571 161.84 218.237 161.931 221.903V222.269L161.748 222.361C158.999 223.919 155.974 225.568 152.95 227.218L153.225 226.668C154.691 231.708 156.249 237.115 157.807 242.522L157.349 242.156C160.465 241.972 163.856 241.789 167.338 241.514H167.613L167.796 241.789C169.538 244.722 171.737 247.563 174.395 250.129C174.486 250.312 174.303 249.579 174.578 250.587V250.679L174.486 250.77V250.862L174.395 251.228L174.211 251.778L173.845 253.061L173.203 255.444C172.745 257.002 172.287 258.651 171.829 260.209L171.554 259.66C176.503 262.317 181.268 264.975 186.033 267.541L185.484 267.724C187.683 265.158 189.882 262.684 192.082 260.209L192.265 260.026H192.54C196.022 260.943 199.597 261.309 203.171 261.217H203.446L203.629 261.492C205.187 264.425 206.836 267.358 208.394 270.198L207.844 270.015C213.251 268.366 218.567 266.899 223.699 265.341L223.424 265.891C223.24 262.5 222.965 259.11 222.782 255.902V255.627L223.057 255.444C226.173 253.611 228.922 251.32 231.397 248.846L231.58 248.571L231.763 248.662C235.062 249.67 238.27 250.587 241.386 251.412L240.928 251.687C243.677 246.555 246.334 241.789 248.9 237.207L248.992 237.665C246.334 235.283 243.86 233.175 241.477 230.975L241.294 230.884L241.386 230.7C242.302 226.943 242.669 223.369 242.577 220.07V219.795L242.76 219.703C245.968 217.962 248.809 216.404 251.466 214.938L251.375 215.304C249.634 209.073 248.076 203.849 246.793 199.358L247.068 199.542C243.035 199.725 239.828 199.908 237.079 200.092H236.987L236.895 200C235.062 196.884 233.321 194.776 232.13 193.493C231.488 192.852 231.122 192.394 230.755 192.027C230.48 191.66 230.297 191.477 230.297 191.477C230.297 191.477 230.48 191.66 230.847 191.935C231.122 192.21 231.672 192.669 232.221 193.402C233.504 194.685 235.246 196.701 237.17 199.817L237.079 199.725C239.736 199.542 243.035 199.358 246.976 199.084H247.159L247.251 199.267C248.534 203.757 250.092 208.981 251.925 215.121L252.016 215.304L251.833 215.488C249.084 216.954 246.243 218.512 243.035 220.345L243.219 219.978C243.31 223.461 243.035 227.035 242.119 230.792L242.027 230.425C244.41 232.533 246.884 234.733 249.45 237.115L249.725 237.299L249.542 237.574C247.068 242.156 244.41 246.921 241.661 252.053L241.477 252.328L241.202 252.236C237.995 251.412 234.879 250.495 231.58 249.487L231.947 249.396C229.564 251.962 226.723 254.344 223.515 256.269L223.699 255.811C223.882 259.11 224.157 262.409 224.34 265.8V266.166L223.974 266.258C218.842 267.816 213.526 269.374 208.119 270.932L207.753 271.023L207.569 270.657C206.012 267.816 204.362 264.883 202.712 261.951L203.171 262.226C199.597 262.317 195.931 261.951 192.357 261.034L192.815 260.851C190.616 263.325 188.416 265.8 186.217 268.366L185.942 268.641L185.575 268.457C180.81 265.891 175.953 263.234 171.096 260.484L170.729 260.301L170.821 259.934C171.279 258.377 171.737 256.727 172.195 255.169L172.928 252.695L173.203 251.503L173.387 250.953L173.478 250.587L173.57 250.495V250.404V250.312C173.845 251.32 173.662 250.587 173.753 250.862C171.004 248.296 168.713 245.272 166.88 242.339L167.338 242.614C163.947 242.797 160.557 242.981 157.349 243.164H156.983L156.891 242.797C155.241 237.39 153.683 231.983 152.217 226.943L152.125 226.576L152.492 226.393C155.516 224.652 158.449 223.002 161.198 221.536L161.015 221.994C160.923 218.145 161.381 214.48 162.206 211.089L162.298 211.639C159.732 209.348 157.166 207.056 154.875 204.949L154.6 204.765L154.783 204.399C157.532 199.358 160.19 194.501 162.756 189.919L162.848 189.553L163.214 189.644C166.605 190.652 169.904 191.569 172.837 192.485L172.379 192.577C175.036 189.828 177.969 187.537 180.901 185.795L180.718 186.162C180.535 182.679 180.26 179.289 180.077 176.173V175.898L180.443 175.806C185.942 174.157 191.257 172.599 196.297 171.224L196.572 171.132L196.664 171.316C198.405 174.432 200.055 177.364 201.521 180.113L201.246 179.93C205.095 179.839 208.669 180.297 212.06 181.122L211.693 181.213C214.076 178.556 216.367 176.081 218.383 173.79L218.475 173.607L218.658 173.698C224.615 176.998 229.472 179.747 233.138 181.763L233.23 181.855V181.946C232.313 185.062 231.58 187.445 231.122 189.094C230.847 189.828 230.664 190.469 230.572 190.927C230.389 191.294 230.297 191.477 230.297 191.477Z" fill="#EBECEC"/>
<path d="M314.397 257.848L275.998 212.943L328.052 186L324.386 205.245L449.479 228.981L443.248 261.697L318.154 237.962L314.397 257.848Z" stroke="white"/>
<path d="M463.714 307.039L471.137 323.901C471.137 323.901 456.474 337.19 457.574 340.397L490.84 327.109L480.301 300.349L463.714 307.039Z" fill="#EA5563"/>
<path d="M457.573 340.397C457.573 340.305 457.481 340.122 457.481 340.031C457.481 336.273 471.136 323.901 471.136 323.901L463.713 307.039L480.301 300.349L490.839 327.109L457.573 340.397Z" fill="#FF151F"/>
<path d="M490.839 327.109L489.648 324.451L458.214 338.198C458.214 338.198 457.023 339.389 457.573 340.397L490.839 327.109Z" fill="#29383E"/>
<path d="M522.273 330.958L531.529 346.904C531.529 346.904 518.516 361.658 519.982 364.774L551.508 347.82L537.944 322.435L522.273 330.958Z" fill="#EA5563"/>
<path d="M519.983 364.774C519.891 364.591 519.891 364.407 519.891 364.224C519.8 360.192 531.53 346.904 531.53 346.904L525.94 337.189L542.344 330.591L551.508 347.82L519.983 364.774Z" fill="#FF151F"/>
<path d="M551.508 347.82L550.041 345.346L520.349 362.483C520.349 362.483 519.249 363.858 519.982 364.774L551.508 347.82Z" fill="#29383E"/>
<path d="M481.584 107.624L461.147 109.273L460.506 97.818C460.506 97.818 452.258 97.6347 450.975 89.6617C449.784 81.5972 448.592 62.902 448.592 62.902C457.298 57.4951 468.295 57.4034 477.185 62.4438L478.559 63.1769L481.584 107.624Z" fill="#F7B8A0"/>
<path d="M460.414 97.6348C460.414 97.6348 465.638 97.3599 470.495 93.236C470.495 93.236 468.754 99.5593 460.597 99.9259L460.414 97.6348Z" fill="#F39772"/>
<path d="M478.742 71.6998C478.834 71.6082 484.057 69.2255 484.607 74.8157C485.249 80.3142 479.567 79.7644 479.567 79.6727C479.475 79.4895 478.742 71.6998 478.742 71.6998Z" fill="#F7B8A0"/>
<path d="M481.033 77.3816C481.033 77.3816 481.125 77.3816 481.308 77.4733C481.4 77.5649 481.675 77.5649 481.949 77.3816C482.591 77.1067 482.958 76.1903 482.866 75.1822C482.774 74.6323 482.683 74.1741 482.408 73.8075C482.224 73.441 481.949 73.166 481.675 73.166C481.308 73.0744 481.125 73.3493 481.125 73.441C481.033 73.6243 481.125 73.7159 481.033 73.7159C481.033 73.8075 480.941 73.7159 480.941 73.441C480.941 73.3493 481.033 73.166 481.125 73.0744C481.216 72.9828 481.4 72.8911 481.675 72.8911C482.041 72.8911 482.499 73.166 482.774 73.6243C483.049 73.9908 483.232 74.5407 483.232 75.0905C483.324 76.2819 482.866 77.3816 482.133 77.6565C481.675 77.8398 481.4 77.7482 481.216 77.6565C481.033 77.4733 480.941 77.3816 481.033 77.3816Z" fill="#F39772"/>
<path d="M452.074 75.5489C452.074 76.1904 452.716 76.5569 453.357 76.5569C453.999 76.4653 454.457 75.9154 454.365 75.3656C454.274 74.7241 453.724 74.2659 453.082 74.3575C452.441 74.3575 451.983 74.9074 452.074 75.5489Z" fill="#29383E"/>
<path d="M451.708 73.9908C451.891 74.0825 452.624 73.3493 453.907 73.166C455.099 72.9828 456.107 73.5326 456.198 73.3493C456.29 73.2577 456.107 72.9828 455.648 72.7995C455.19 72.5245 454.549 72.3413 453.724 72.4329C452.991 72.6162 452.349 72.9828 452.074 73.2577C451.708 73.6243 451.616 73.8992 451.708 73.9908Z" fill="#29383E"/>
<path d="M464.079 74.1741C464.171 74.724 464.721 75.1822 465.362 75.1822C466.004 75.0905 466.462 74.5407 466.37 73.8992C466.37 73.3493 465.821 72.8911 465.179 72.8911C464.538 72.9828 463.988 73.5326 464.079 74.1741Z" fill="#29383E"/>
<path d="M463.896 72.5246C464.08 72.6163 464.813 71.8831 466.096 71.6999C467.287 71.5166 468.295 72.0664 468.387 71.8831C468.478 71.7915 468.295 71.5166 467.837 71.3333C467.47 71.0584 466.737 70.8751 466.004 70.9667C465.179 71.0584 464.538 71.5166 464.263 71.7915C463.896 72.1581 463.805 72.433 463.896 72.5246Z" fill="#29383E"/>
<path d="M460.689 82.3304C460.689 82.2388 459.865 82.2388 458.673 82.2388C458.307 82.2388 458.032 82.2388 457.94 82.0555C457.848 81.7805 457.94 81.414 458.032 81.0474C458.215 80.2226 458.398 79.3978 458.582 78.4814C459.406 74.9073 459.956 71.9747 459.773 71.9747C459.681 71.8831 458.856 74.8157 458.032 78.3898C457.848 79.3062 457.665 80.131 457.482 80.9558C457.482 81.3223 457.299 81.7805 457.482 82.2388C457.665 82.422 457.94 82.6053 458.123 82.6053C458.307 82.6053 458.49 82.6053 458.673 82.6053C459.956 82.5137 460.689 82.422 460.689 82.3304Z" fill="#29383E"/>
<path d="M464.446 82.6969C464.263 82.6969 464.446 84.0715 463.438 85.1713C462.43 86.271 460.964 86.3626 460.964 86.5459C460.964 86.6375 461.33 86.7292 461.972 86.6375C462.522 86.6375 463.347 86.271 463.988 85.6295C464.63 84.8963 464.813 84.0715 464.813 83.5217C464.721 82.9718 464.538 82.6969 464.446 82.6969Z" fill="#29383E"/>
<path d="M462.889 67.6675C463.072 68.0341 464.263 67.6675 465.73 67.6675C467.196 67.5759 468.479 67.8508 468.662 67.4842C468.662 67.3926 468.479 67.1177 467.929 66.8427C467.379 66.5678 466.646 66.3845 465.73 66.3845C464.813 66.3845 464.08 66.6594 463.53 66.9344C463.072 67.2093 462.797 67.5759 462.889 67.6675Z" fill="#29383E"/>
<path d="M451.616 70.3251C451.891 70.6 452.716 70.1418 453.724 70.0501C454.732 69.8669 455.649 69.9585 455.832 69.5919C455.924 69.5003 455.74 69.2254 455.282 68.9504C454.916 68.7672 454.182 68.6755 453.541 68.7672C452.808 68.8588 452.258 69.2254 451.891 69.5919C451.616 69.8669 451.525 70.2334 451.616 70.3251Z" fill="#29383E"/>
<path d="M443.918 58.32C443.735 57.3119 443.918 56.2122 444.651 55.4791C445.384 54.8376 446.667 54.6543 447.401 55.2958C446.851 54.0128 447.767 52.3632 449.142 52.0883C450.425 51.8134 451.708 52.6382 452.991 52.8214C454.274 52.9131 455.557 52.4549 456.657 51.8134C457.848 51.1719 458.856 50.3471 459.956 49.7056C462.338 48.4226 465.271 48.1476 467.837 48.9724C470.495 49.7056 472.694 51.5384 474.069 53.9212C475.718 53.188 477.826 53.7379 479.109 55.1125C480.484 56.3955 481.034 58.32 481.034 60.2445C481.034 61.5275 480.85 62.7189 480.667 64.0019C480.667 64.0935 480.667 64.1852 480.667 64.2768C481.217 68.7673 481.4 73.991 479.567 74.2659C476.268 74.8157 476.176 68.4924 476.176 68.4924C471.869 67.4843 472.602 61.2526 471.411 60.4278C470.311 59.6947 467.837 57.8618 460.047 63.3604C456.931 65.4682 452.533 66.018 450.15 65.8347H449.875H449.783C448.959 65.7431 448.225 65.5598 447.492 65.1932C446.667 64.8267 445.843 64.2768 445.384 63.452C444.926 62.6272 444.926 61.6192 445.476 60.886C444.743 60.1529 444.193 59.3281 443.918 58.32Z" fill="#29383E"/>
<path d="M460.414 104.783L461.33 136.766L481.309 93.9691L480.759 89.9368L460.414 104.783Z" fill="#EBECEC"/>
<path d="M473.702 200.458C472.969 200.733 431.454 242.614 432.371 250.22C433.287 257.735 462.888 313.546 462.888 313.546L483.874 303.098L464.171 254.253L464.446 251.228L488.548 231.433L487.265 199.542L473.702 200.458Z" fill="#4E35CB"/>
<path d="M482.592 208.706C483.05 209.439 490.29 275.33 492.214 278.813C494.139 282.204 522.915 338.381 522.915 338.381L544.359 329.766L518.241 267.999L521.173 209.439L519.616 192.943L487.266 199.542L482.592 208.706Z" fill="#4E35CB"/>
<path d="M491.848 277.622C491.756 277.622 491.756 277.347 491.664 276.98C491.573 276.43 491.481 275.88 491.39 275.056C491.115 273.314 490.748 270.932 490.29 267.999C489.465 262.042 488.274 253.886 486.991 244.905C485.708 235.832 484.608 227.676 483.783 221.719C483.417 218.787 483.05 216.404 482.867 214.663C482.775 213.93 482.683 213.288 482.592 212.83C482.592 212.372 482.592 212.097 482.592 212.097C482.592 212.097 482.683 212.372 482.683 212.738C482.775 213.288 482.867 213.93 483.05 214.663C483.325 216.404 483.692 218.787 484.058 221.719C484.975 227.676 486.166 235.832 487.449 244.813C488.64 253.886 489.832 262.042 490.656 267.999C491.023 270.932 491.298 273.314 491.573 275.056C491.664 275.789 491.664 276.43 491.756 276.98C491.848 277.347 491.848 277.622 491.848 277.622Z" fill="white"/>
<path d="M517.692 266.075C517.783 266.166 517.233 268.457 516.409 271.298C515.675 274.139 514.851 276.43 514.759 276.43C514.667 276.339 515.217 274.047 516.042 271.207C516.775 268.366 517.6 266.075 517.692 266.075Z" fill="white"/>
<path d="M520.899 281.012C520.899 281.012 520.349 280.462 519.799 279.363C519.158 278.355 518.425 276.705 518.058 274.872C517.691 273.039 517.6 271.298 517.783 270.015C517.875 268.824 518.15 268.091 518.15 268.091C518.333 268.091 517.691 271.115 518.516 274.781C519.249 278.446 521.082 280.921 520.899 281.012Z" fill="white"/>
<path d="M457.206 247.104C457.298 247.013 459.039 247.746 460.688 249.304C462.43 250.77 463.255 252.511 463.163 252.511C463.071 252.603 462.063 251.137 460.414 249.579C458.764 248.113 457.206 247.288 457.206 247.104Z" fill="white"/>
<path d="M460.506 245.18C460.598 245.088 461.606 246.005 462.522 247.471C463.439 248.937 463.805 250.312 463.713 250.312C463.53 250.404 463.072 249.121 462.156 247.746C461.239 246.28 460.414 245.272 460.506 245.18Z" fill="white"/>
<path d="M463.346 149.046L468.662 175.348L472.969 212.097C472.969 212.097 490.748 209.622 498.354 207.148C507.152 204.399 526.213 202.016 526.213 202.016L523.006 205.224C529.879 203.299 534.278 196.792 534.278 196.792C522.456 185.795 512.375 163.343 512.375 163.343L503.394 118.804C503.394 118.804 502.02 112.481 501.195 109.732C500.37 106.891 486.807 97.9096 484.882 96.8099L483.691 96.1684L483.325 92.5943L481.95 91.7695L467.195 105.149C464.354 107.807 462.522 111.381 462.063 115.23C461.605 119.262 461.147 125.036 461.422 131.909C461.605 137.133 463.346 149.046 463.346 149.046Z" fill="#FF151F"/>
<path d="M473.519 103.5C473.519 103.5 465.729 107.715 464.355 111.198C462.98 114.772 467.012 153.629 467.012 153.629L439.061 154.178L438.97 170.766C438.97 170.766 483.417 174.34 485.066 171.957C487.449 168.658 490.198 138.324 490.198 138.324L491.206 116.513C491.206 116.513 488.549 99.8341 473.519 103.5Z" fill="#FF151F"/>
<path d="M476.543 176.539C473.886 176.539 471.32 176.264 468.662 175.348L468.112 172.69C468.112 172.69 473.244 173.057 477.185 173.057C478.376 173.057 479.476 173.057 480.301 172.965C481.126 172.874 482.042 172.782 482.775 172.507C484.058 172.415 484.883 172.232 485.066 171.957C485.799 170.949 486.441 167.925 487.082 163.893C488.182 158.486 488.915 151.704 489.19 147.488C489.373 146.205 489.465 145.014 489.648 143.823C490.473 146.389 491.665 150.971 491.298 153.445C490.931 156.011 490.29 158.577 490.107 161.235C489.923 164.259 490.473 167.375 489.282 170.216C487.816 173.882 483.783 176.081 479.843 176.448C478.743 176.539 477.552 176.539 476.543 176.539Z" fill="#BE3E45"/>
<path d="M482.775 172.507C483.234 172.416 483.6 172.232 483.967 171.957C484.792 171.224 485.341 170.216 485.708 169.208C486.258 167.742 486.716 165.909 487.083 163.893C486.441 167.925 485.8 170.949 485.066 171.957C484.883 172.232 484.058 172.416 482.775 172.507ZM489.19 147.489C489.465 145.106 489.557 143.548 489.557 143.548C489.557 143.64 489.557 143.731 489.649 143.823C489.465 145.014 489.374 146.206 489.19 147.489Z" fill="#BE3E45"/>
<path d="M491.114 118.804C491.114 118.804 491.114 118.988 491.114 119.263C491.114 119.537 491.114 119.904 491.114 120.362C491.022 121.462 490.931 122.928 490.839 124.853C490.748 126.777 490.656 129.16 490.473 131.909C490.289 134.659 490.198 137.774 489.923 141.257C489.556 144.739 489.19 148.497 488.823 152.529C488.365 156.561 487.907 160.96 487.082 165.451C486.899 166.55 486.715 167.742 486.349 168.841C485.982 170.033 485.249 171.132 484.333 171.866C483.324 172.69 482.133 173.24 480.85 173.149C479.567 173.149 478.376 173.149 477.093 173.149C472.144 172.965 466.92 172.782 461.697 172.507C453.724 172.049 446.117 171.499 438.969 171.041H438.694V170.766C438.786 164.901 438.786 159.311 438.878 154.179V153.995H439.061C450.15 153.72 459.497 153.537 466.004 153.354C469.211 153.354 471.777 153.262 473.61 153.262C474.435 153.262 475.077 153.262 475.535 153.262C475.993 153.262 476.268 153.262 476.268 153.262C476.268 153.262 475.993 153.262 475.535 153.262C475.077 153.354 474.435 153.354 473.61 153.354C471.777 153.445 469.303 153.537 466.004 153.629C459.497 153.812 450.241 154.087 439.061 154.362L439.244 154.179C439.244 159.311 439.153 164.901 439.153 170.766L438.969 170.583C446.117 171.041 453.724 171.591 461.697 172.049C467.012 172.324 472.144 172.507 477.093 172.69C478.376 172.69 479.567 172.69 480.85 172.69C482.041 172.782 483.141 172.324 484.058 171.591C484.882 170.858 485.524 169.849 485.89 168.75C486.257 167.65 486.44 166.459 486.715 165.359C487.448 160.868 487.907 156.561 488.456 152.529C488.823 148.497 489.281 144.648 489.556 141.257C489.923 137.774 490.014 134.659 490.198 131.909C490.381 129.16 490.564 126.777 490.656 124.853C490.839 122.928 490.931 121.462 491.022 120.362C491.022 119.904 491.022 119.537 491.114 119.263C491.114 118.988 491.114 118.804 491.114 118.804Z" fill="#F4F4F4"/>
<path d="M444.469 170.583C444.285 170.583 444.194 166.917 444.285 162.518C444.285 158.028 444.377 154.362 444.56 154.362C444.652 154.362 444.744 158.028 444.744 162.518C444.652 166.917 444.56 170.583 444.469 170.583Z" fill="#F4F4F4"/>
<path d="M441.444 156.928C441.444 156.928 441.719 156.561 442.269 156.745C442.452 156.836 442.819 157.111 442.819 157.478C442.819 157.844 442.636 158.302 442.269 158.486C441.811 158.669 441.353 158.577 441.078 158.302C440.803 158.028 440.803 157.661 440.803 157.386C440.986 156.928 441.353 156.745 441.353 156.836C441.353 156.928 441.169 157.111 441.169 157.478C441.169 157.661 441.261 157.844 441.353 158.028C441.536 158.119 441.811 158.211 442.086 158.119C442.269 158.028 442.361 157.753 442.361 157.569C442.361 157.294 442.269 157.203 442.086 157.111C441.811 156.836 441.536 157.019 441.444 156.928Z" fill="#F4F4F4"/>
<path d="M503.486 122.562C503.486 122.562 518.058 141.623 519.89 146.847C521.632 151.979 520.257 159.402 517.324 162.976C514.3 166.55 511.917 165.084 511.917 165.084L503.486 122.562Z" fill="#FF151F"/>
<path d="M511.46 163.618C511.46 163.709 509.811 164.076 507.794 164.442C505.778 164.809 504.037 164.992 504.037 164.809C504.037 164.717 505.687 164.351 507.703 163.984C509.719 163.618 511.369 163.434 511.46 163.618Z" fill="#F4F4F4"/>
<path d="M514.209 177.639C514.209 177.639 514.392 177.914 514.576 178.647C514.85 179.289 515.125 180.205 515.584 181.396C516.5 183.687 517.783 186.803 519.524 190.194C521.266 193.493 523.007 196.426 524.381 198.534C525.115 199.542 525.664 200.367 526.031 200.916C526.398 201.466 526.581 201.833 526.581 201.833C526.581 201.833 526.306 201.558 525.848 201.008C525.481 200.458 524.84 199.725 524.106 198.717C522.732 196.701 520.807 193.768 519.066 190.377C517.325 186.987 516.042 183.871 515.309 181.488C514.85 180.297 514.576 179.38 514.392 178.647C514.301 178.006 514.209 177.639 514.209 177.639Z" fill="#F4F4F4"/>
<path d="M526.214 200.275C526.122 200.275 526.031 200.275 525.939 200.183C525.572 200.092 525.297 199.817 525.023 199.542C524.839 199.175 524.656 198.9 524.381 198.534C523.006 196.426 521.265 193.493 519.524 190.194C517.874 186.987 516.591 184.054 515.767 181.763C515.583 181.396 515.492 180.938 515.4 180.48L515.217 179.839C517.508 183.962 519.891 188.178 523.373 191.294C524.656 192.394 526.031 193.402 526.947 194.776C527.955 196.151 528.322 198.075 527.405 199.45C527.13 199.908 526.672 200.275 526.214 200.275Z" fill="#BE3E45"/>
<path d="M525.023 199.542C525.023 199.45 525.023 199.45 525.023 199.45C520.899 194.135 517.783 188.178 515.767 181.763C516.591 184.054 517.874 186.987 519.524 190.194C521.265 193.493 523.006 196.426 524.381 198.534C524.656 198.9 524.839 199.175 525.023 199.542Z" fill="#F4F4F4"/>
<path d="M513.292 164.992L511.918 163.16L504.77 125.494L506.144 130.718C508.069 138.324 510.176 144.556 513.292 151.521C514.3 153.812 515.4 156.011 515.675 158.486C515.95 160.868 515.309 163.618 513.292 164.992Z" fill="#BE3E45"/>
<path d="M477.276 101.85C477.184 101.759 478.467 100.567 479.934 99.1011C481.492 97.6348 482.591 96.3518 482.683 96.4435C482.775 96.4435 481.858 97.9098 480.3 99.4677C478.834 100.934 477.368 101.942 477.276 101.85Z" fill="#F4F4F4"/>
<path d="M475.81 105.058C475.81 105.15 474.985 105.424 473.702 105.974C472.419 106.616 470.678 107.716 469.12 109.273C467.654 110.831 466.554 112.573 465.913 113.856C465.363 115.139 465.088 115.963 464.996 115.963C464.996 115.963 464.996 115.78 465.088 115.322C465.179 114.955 465.363 114.405 465.638 113.672C466.187 112.389 467.287 110.556 468.845 108.999C470.403 107.349 472.144 106.249 473.519 105.699C474.16 105.424 474.802 105.241 475.168 105.15C475.535 105.058 475.81 105.058 475.81 105.058Z" fill="#F4F4F4"/>
<path d="M514.85 168.841C514.85 168.841 514.759 168.658 514.667 168.475C514.484 168.2 514.301 167.833 514.026 167.375C513.567 166.367 512.834 164.992 512.01 163.251H511.918C511.001 159.036 509.718 152.987 508.344 146.206C507.061 139.882 505.87 134.109 505.045 129.801C504.678 127.785 504.312 126.044 504.037 124.853C503.945 124.303 503.945 123.845 503.853 123.478C503.762 123.203 503.762 123.02 503.762 123.02C503.762 123.02 503.853 123.203 503.945 123.478C504.037 123.845 504.128 124.303 504.22 124.853C504.495 126.044 504.861 127.694 505.32 129.801C506.236 134.017 507.427 139.791 508.802 146.114C510.177 152.896 511.46 158.944 512.284 163.16C513.018 164.809 513.751 166.275 514.209 167.283C514.392 167.742 514.576 168.108 514.759 168.383C514.85 168.658 514.85 168.841 514.85 168.841Z" fill="#F4F4F4"/>
<path d="M466.554 153.629C466.462 153.629 466.462 153.079 466.279 152.254C466.188 151.246 466.096 149.963 465.913 148.497C465.546 145.289 465.18 140.89 464.721 135.942C464.263 131.084 463.897 126.686 463.713 123.478C463.53 121.92 463.438 120.729 463.438 119.721C463.347 118.804 463.347 118.346 463.347 118.346C463.438 118.346 463.438 118.804 463.622 119.721C463.713 120.637 463.805 121.92 463.988 123.478C464.355 126.686 464.721 131.084 465.18 135.942C465.638 140.799 466.004 145.197 466.188 148.405C466.371 149.963 466.462 151.246 466.462 152.254C466.554 153.079 466.554 153.629 466.554 153.629Z" fill="#F4F4F4"/>
<path d="M439.427 156.103C439.427 156.103 433.379 151.521 431.913 151.246C430.721 151.063 424.031 151.154 420.915 151.246C419.724 151.246 418.716 152.162 418.716 153.354V153.537C418.991 154.82 420.182 155.095 420.182 155.095C420.182 155.095 418.624 155.553 418.533 157.294C418.533 159.036 420.641 159.402 420.641 159.402C420.641 159.402 420.549 159.494 420.366 159.677C419.174 160.868 419.816 162.793 421.374 163.16L422.382 163.434C422.382 163.434 421.007 163.984 421.099 165.176C421.099 167.467 426.231 167.925 426.231 167.925C426.231 167.925 439.061 169.941 439.336 169.849C439.611 169.758 439.427 156.103 439.427 156.103Z" fill="#F7B8A0"/>
<path d="M422.107 148.497C422.199 149.23 422.382 150.879 423.665 151.612L430.813 151.338C430.813 151.338 425.498 149.505 424.673 148.588C424.49 148.222 424.123 147.855 423.665 147.58C423.023 147.122 422.107 147.672 422.107 148.497Z" fill="#F7B8A0"/>
<path d="M427.422 151.246C427.422 151.338 425.956 151.521 424.123 151.429C422.382 151.429 420.916 151.338 420.916 151.246C420.916 151.154 422.382 150.971 424.215 150.971C425.956 151.063 427.422 151.154 427.422 151.246Z" fill="#F39772"/>
<path d="M425.864 155.187C425.864 155.37 424.581 155.553 423.023 155.553C421.466 155.461 420.183 155.187 420.274 155.003C420.274 154.912 421.466 155.003 423.023 155.003C424.581 155.095 425.773 155.095 425.864 155.187Z" fill="#F39772"/>
<path d="M429.439 154.728C429.53 154.82 429.439 155.187 428.981 155.461C428.614 155.645 428.156 155.645 428.156 155.553C428.156 155.37 428.431 155.278 428.797 155.003C429.072 154.82 429.347 154.637 429.439 154.728Z" fill="#F39772"/>
<path d="M426.598 159.769C426.598 159.86 425.223 159.952 423.573 159.86C421.832 159.769 420.458 159.677 420.458 159.494C420.458 159.402 421.832 159.31 423.573 159.402C425.223 159.494 426.598 159.585 426.598 159.769Z" fill="#F39772"/>
<path d="M430.721 157.844C430.721 157.844 430.813 157.936 430.904 158.211C430.904 158.486 430.813 158.944 430.538 159.311C430.263 159.585 429.896 159.769 429.621 159.86C429.346 159.86 429.163 159.769 429.163 159.677C429.163 159.585 429.805 159.494 430.171 159.036C430.629 158.486 430.538 157.844 430.721 157.844Z" fill="#F39772"/>
<path d="M427.697 164.167C427.697 164.259 426.414 164.259 424.948 164.076C423.39 163.892 422.198 163.618 422.198 163.434C422.198 163.343 423.481 163.434 424.948 163.618C426.505 163.801 427.697 163.984 427.697 164.167Z" fill="#F39772"/>
<path d="M431.637 161.876C431.729 161.876 431.821 162.06 431.821 162.335C431.821 162.61 431.637 162.976 431.454 163.343C430.904 163.893 430.263 164.168 430.263 164.076C430.171 163.984 430.629 163.526 431.088 162.976C431.454 162.518 431.546 161.968 431.637 161.876Z" fill="#F39772"/>
<path d="M520.624 205.59C523.098 205.407 525.481 203.849 526.764 201.741C526.947 201.466 527.039 201.1 526.855 200.916C526.764 200.733 526.489 200.733 526.305 200.733C524.381 200.733 522.365 201.1 520.44 201.741C520.257 201.833 520.074 201.925 519.982 202.108C519.89 202.291 519.982 202.474 519.982 202.658C520.257 203.574 520.44 204.582 520.715 205.499L520.624 205.59Z" fill="#EA5563"/>
<path d="M520.624 205.59L520.715 205.499C520.532 204.674 520.257 203.757 520.074 202.841C519.982 202.841 519.982 202.749 519.982 202.658C519.982 202.566 519.891 202.383 519.891 202.291C519.891 202.291 519.891 202.199 519.982 202.108C520.074 201.925 520.257 201.833 520.44 201.741C522.273 201.1 524.289 200.733 526.214 200.733H526.306C526.489 200.733 526.764 200.733 526.856 200.916C526.947 201.008 526.947 201.1 526.947 201.191C526.947 201.375 526.856 201.558 526.764 201.741C526.031 203.024 524.839 204.124 523.465 204.765C522.548 205.224 521.632 205.499 520.624 205.59Z" fill="#BE3E45"/>
<path d="M460.414 104.783C460.414 104.783 457.482 114.68 458.306 114.131C459.131 113.489 460.872 111.931 460.872 111.931L460.414 104.783Z" fill="#EBECEC"/>
<path d="M460.597 109.365L459.039 113.214C458.856 113.581 458.764 113.947 458.672 114.405C458.581 115.505 458.397 117.43 459.039 117.613C459.955 117.796 460.78 116.88 460.78 116.88L460.597 109.365Z" fill="#29383E"/>
<path d="M510.36 109.915C510.36 109.915 494.689 103.866 485.983 109.273C477.277 114.68 475.719 123.295 470.495 123.295C460.414 123.295 460.781 116.147 460.781 116.147L458.673 116.788C458.582 118.254 456.29 128.702 466.921 129.985C477.552 131.268 482.042 116.788 491.573 116.788C501.195 116.788 508.435 121.92 508.435 121.92L515.309 117.613L510.36 109.915Z" fill="#29383E"/>
<path d="M470.128 129.802C470.128 129.802 473.977 127.785 476.176 122.928C478.559 117.246 483.783 110.831 488.182 109.274C492.58 107.624 502.661 106.524 509.626 111.015L514.117 117.063L508.343 120.821C508.343 120.821 503.761 118.346 498.079 116.788C490.839 114.772 486.532 116.972 482.316 121.004C482.042 121.187 481.767 121.462 481.583 121.737C480.484 122.928 477.643 125.678 474.985 127.602C472.877 129.068 471.044 129.893 470.128 129.802Z" fill="#3F5E69"/>
<path d="M145.16 44.3902C135.904 45.8565 129.031 37.9752 126.923 31.0103C124.907 24.5953 123.899 17.9054 121.058 11.8569C117.117 3.33414 106.67 -0.698155 97.3221 0.126631C87.9745 0.951418 78.5353 5.62521 70.1958 10.0241L72.4869 61.4358C72.4869 61.4358 90.5405 42.2824 99.2466 41.9158C113.726 41.2743 112.901 65.1015 127.014 68.5839C127.014 68.5839 146.718 73.9909 160.006 56.762C168.529 45.8565 169.262 32.5682 169.262 32.5682C169.262 32.5682 162.755 41.7325 145.16 44.3902Z" fill="#FF151F"/>
<path d="M69.8288 1.50122C70.0121 1.50122 72.4865 56.1204 75.5107 123.478C78.5349 190.836 80.826 245.455 80.7343 245.455C80.5511 245.455 78.0767 190.836 75.0525 123.478C72.0283 56.1204 69.7372 1.50122 69.8288 1.50122Z" fill="#29383E"/>
<path d="M132.239 59.5113C131.23 59.5113 130.406 59.2364 129.581 58.4116C128.481 57.2203 127.107 55.754 126.282 54.3793C121.975 47.1395 119.867 36.7839 119.592 28.6277V27.528C120.875 32.2934 123.716 38.7084 126.373 42.924C129.123 47.1395 133.155 50.622 138.012 51.7217C138.928 51.905 139.845 51.9966 140.67 52.3632C141.403 52.7298 142.136 53.4629 142.136 54.3793C142.228 55.754 140.853 56.6704 139.662 57.2203C137.92 58.0451 136.179 58.9615 134.255 59.2364C133.522 59.4197 132.88 59.5113 132.239 59.5113Z" fill="#D8434D"/>
<path d="M132.147 60.5194C132.147 60.5194 131.964 60.4277 131.689 60.2444C131.414 60.0611 131.047 59.8779 130.589 59.4196C129.672 58.6865 128.389 57.4951 127.198 55.7539C125.915 54.0127 124.724 51.7216 123.716 49.064C122.708 46.4063 121.974 43.3821 121.15 40.1746C119.683 33.8513 119.042 27.9861 118.859 23.6789C118.675 21.5711 118.675 19.8299 118.675 18.6385C118.675 18.0887 118.675 17.6305 118.675 17.2639C118.767 16.9889 118.767 16.8057 118.767 16.8057C118.767 16.8057 118.767 16.9889 118.767 17.2639C118.859 17.6305 118.859 18.0887 118.859 18.6385C118.95 19.8299 118.95 21.5711 119.134 23.6789C119.5 27.8945 120.142 33.7596 121.608 40.083C122.341 43.2905 123.166 46.2231 124.174 48.8807C125.09 51.5383 126.282 53.8294 127.473 55.5706C128.664 57.3119 129.856 58.5032 130.681 59.328C131.597 60.1528 132.147 60.5194 132.147 60.5194Z" fill="#29383E"/>
<path d="M13.7432 256.269L136.728 276.43V256.269H13.7432Z" fill="#E0E0E0"/>
<path d="M156.982 301.724L279.967 321.885V301.724H156.982Z" fill="#E0E0E0"/>
<path d="M299.305 345.254L422.198 365.415V345.254H299.305Z" fill="#E0E0E0"/>
<path d="M441.353 379.895L564.337 399.965V379.895H441.353Z" fill="#E0E0E0"/>
<path d="M13.7432 256.269H136.728V241.239H13.7432V256.269Z" fill="#FF151F"/>
<path d="M136.728 256.269H98.3301V241.239H136.728V256.269Z" fill="#BE3E45"/>
<path d="M156.982 301.724H279.967V286.694H156.982V301.724Z" fill="#FF151F"/>
<path d="M279.968 301.724H241.569V286.694H279.968V301.724Z" fill="#BE3E45"/>
<path d="M299.305 345.254H422.198V330.133H299.305V345.254Z" fill="#FF151F"/>
<path d="M422.198 345.254H383.892V330.133H422.198V345.254Z" fill="#BE3E45"/>
<path d="M441.535 379.895H564.52V364.774H441.535V379.895Z" fill="#FF151F"/>
<path d="M564.52 379.895H526.122V364.774H564.52V379.895Z" fill="#BE3E45"/>
<path d="M488.732 309.88C488.732 311.804 490.199 313.271 492.032 313.271C493.956 313.271 495.422 311.804 495.422 309.88C495.422 308.047 493.956 306.581 492.032 306.581C490.199 306.581 488.732 308.047 488.732 309.88Z" fill="#EBECEC"/>
</g>
<defs>
<clipPath id="clip0">
<rect width="564.521" height="400" fill="white"/>
</clipPath>
</defs>
</svg>
