<svg width="517" height="400" viewBox="0 0 517 400" fill="none" xmlns="http://www.w3.org/2000/svg">
<g clip-path="url(#clip0)">
<path fill-rule="evenodd" clip-rule="evenodd" d="M194.03 400C237.614 400 278.27 392.916 314.827 381.888C155.438 381.36 18.9418 333.301 18.9697 191.68C18.9697 190.152 18.9975 188.624 19.0812 187.096C-29.1595 245.017 13.3927 384.277 154.964 398.083C168.209 399.389 181.259 400 194.03 400ZM508.376 217.21C507.567 184.096 490.083 149.038 440.783 133.287C430.354 129.981 419.842 128.537 409.441 128.537C364.881 128.537 322.607 154.955 300.216 171.817C295.197 175.596 289.954 179.012 284.517 182.096C305.653 181.957 325.563 176.818 345.78 171.679C366.247 166.484 387.049 161.289 409.775 161.289C456.956 161.289 488.02 170.123 508.376 217.21Z" fill="#DCDEE9"/>
<path fill-rule="evenodd" clip-rule="evenodd" d="M463.76 130.315C464.457 130.315 465.21 130.176 465.991 129.898C469.951 126.953 468.222 122.036 464.429 121.342C464.151 121.286 463.872 121.258 463.593 121.258C461.725 121.258 459.968 122.397 459.299 124.203C458.211 127.12 460.386 130.315 463.76 130.315Z" fill="#D1D4E4"/>
<path fill-rule="evenodd" clip-rule="evenodd" d="M22.3717 112.702C27.4467 112.702 31.5737 108.591 31.5737 103.535C31.5737 98.4513 27.4467 94.3676 22.3717 94.3676C17.2966 94.3676 13.1697 98.4513 13.1697 103.535C13.1697 108.591 17.2966 112.702 22.3717 112.702Z" fill="#D1D4E4"/>
<path fill-rule="evenodd" clip-rule="evenodd" d="M445.468 125.87C449.539 125.87 453.276 123.203 454.419 119.119C455.813 114.175 452.941 109.063 447.977 107.702C447.141 107.452 446.304 107.341 445.468 107.341C441.397 107.341 437.66 110.008 436.517 114.119C435.123 119.036 438.023 124.147 442.958 125.536C443.795 125.759 444.659 125.87 445.468 125.87Z" fill="#D6D9E5"/>
<path fill-rule="evenodd" clip-rule="evenodd" d="M67.35 398.917C67.7404 398.917 68.1308 398.861 68.5491 398.778C72.9827 396.666 72.2298 391.499 68.6048 390.11C68.075 389.888 67.4894 389.805 66.9317 389.805C65.3702 389.805 63.8644 390.583 63.0279 391.972C61.2711 394.889 63.3067 398.917 67.35 398.917Z" fill="#D1D4E4"/>
<path fill-rule="evenodd" clip-rule="evenodd" d="M39.716 95.1455C42.8391 95.1455 45.3766 92.6175 45.3766 89.5062C45.3766 86.3671 42.8391 83.8669 39.716 83.8669C36.5929 83.8669 34.0554 86.3671 34.0554 89.5062C34.0554 92.6175 36.5929 95.1455 39.716 95.1455Z" fill="#D1D4E4"/>
<path fill-rule="evenodd" clip-rule="evenodd" d="M317.504 381.915C326.483 381.915 335.546 381.749 344.636 381.471C505.838 376.304 534.839 278.519 508.376 217.21C508.794 235.183 504.333 252.545 497.361 265.963C483.893 291.881 414.822 351.719 314.828 381.888C315.72 381.888 316.612 381.915 317.504 381.915ZM216.366 199.819C223.087 199.819 230.169 199.319 237.698 198.208C254.15 195.791 269.989 190.263 284.517 182.096C284.266 182.096 284.015 182.096 283.764 182.096C277.685 182.096 271.495 181.652 265.193 180.707C198.464 170.595 191.716 82.478 120.47 82.478C119.104 82.478 117.71 82.5057 116.316 82.5891C115.368 82.6169 114.447 82.6724 113.527 82.728C62.6931 85.9782 21.5352 138.01 19.0813 187.096C26.3871 178.346 35.7285 171.456 47.1613 167.123C59.7095 162.372 70.8913 160.4 81.2086 160.4C104.437 160.4 123.343 170.262 143.866 180.124C164.417 189.958 186.585 199.819 216.366 199.819Z" fill="#AEA5DE"/>
<path fill-rule="evenodd" clip-rule="evenodd" d="M314.828 381.888C414.822 351.719 483.893 291.881 497.361 265.963C504.333 252.545 508.794 235.183 508.376 217.21C476.225 142.76 410.249 155.316 345.78 171.679C325.563 176.818 305.653 181.957 284.517 182.096C269.989 190.263 254.15 195.791 237.698 198.208C230.169 199.319 223.087 199.819 216.366 199.819C186.585 199.819 164.417 189.958 143.866 180.124C123.343 170.262 104.437 160.4 81.2086 160.4C70.8912 160.4 59.7094 162.372 47.1613 167.123C35.7285 171.456 26.3871 178.346 19.0813 187.096C18.9976 188.624 18.9697 190.152 18.9697 191.68C18.9418 333.301 155.438 381.36 314.828 381.888Z" fill="#AEA5DE"/>
<path d="M98.0508 369.998C98.8873 366.775 96.7402 363.525 94.3421 361.22C91.944 358.886 89.0997 356.803 87.817 353.691C85.7815 348.691 88.4584 342.19 85.0007 338.023C82.9651 335.579 79.368 334.773 77.5554 332.134C76.6074 330.773 76.3006 329.078 75.9102 327.439C73.9862 319.161 69.7756 311.411 63.864 305.299C63.5015 312.688 65.1746 320.161 68.6602 326.689C70.0823 329.301 71.7833 331.856 72.2573 334.801C73.0381 339.551 70.389 344.496 71.5881 349.163C72.9823 354.525 79.0333 358.08 79.3401 363.581C79.6189 368.248 75.5756 372.359 75.8824 377.026C76.0218 378.999 76.9699 380.832 78.0016 382.527C81.6545 388.499 87.0084 392.611 95.0671 392.416L104.938 392.722L98.0508 369.998Z" fill="#4E35CB"/>
<path d="M106.918 392.972C106.918 392.972 107.866 393.166 109.651 392.888C110.515 392.749 111.603 392.499 112.857 392.055C114.057 391.611 115.451 390.972 116.789 389.888C117.431 389.305 118.072 388.638 118.407 387.721C118.741 386.805 118.797 385.805 118.853 384.777C118.908 383.749 118.908 382.665 119.076 381.582C119.243 380.499 119.661 379.443 120.247 378.415C121.418 376.387 123.342 374.443 123.928 371.665C124.597 368.942 124.095 365.998 123.621 363.053C123.147 360.108 122.673 356.886 123.788 353.83C124.848 350.747 126.995 347.941 128.055 344.468C129.114 340.968 128.585 337.218 128.78 333.495C128.891 331.634 129.226 329.745 130.035 328.023C130.843 326.273 131.931 324.634 132.795 322.8C134.524 319.078 134.803 314.883 135.249 310.772C135.472 308.688 135.695 306.605 135.918 304.493C136.141 302.354 136.336 300.243 136.978 298.187C137.591 296.132 138.456 294.132 139.32 292.104C139.738 291.076 140.185 290.048 140.436 288.909C140.631 287.742 140.687 286.659 140.742 285.52C140.854 283.27 140.742 280.992 140.436 278.714C140.157 276.464 139.738 274.213 139.487 271.936C139.46 271.797 139.46 271.658 139.432 271.547L139.376 271.102L138.986 271.297C136.866 272.352 135.054 273.936 133.687 275.797C132.293 277.63 131.261 279.686 130.453 281.797C128.835 286.02 128.278 290.465 127.469 294.687C126.66 298.91 125.629 303.077 123.482 306.605C122.394 308.355 121.111 309.966 119.968 311.688C118.825 313.383 117.849 315.244 117.542 317.3C116.984 321.467 119.299 325.106 118.853 328.773C118.685 330.606 117.96 332.329 117.068 333.884C116.204 335.468 115.144 336.94 114.168 338.412C113.164 339.885 112.216 341.357 111.547 342.968C110.822 344.552 110.459 346.246 110.348 347.885C110.125 351.219 110.627 354.358 110.404 357.33C110.208 360.303 109.177 362.997 108.006 365.414C106.834 367.831 105.496 370.026 104.408 372.165C103.851 373.22 103.349 374.276 102.93 375.304C102.484 376.332 102.289 377.415 102.094 378.415C101.759 380.471 101.815 382.36 102.038 384.027C102.484 387.388 103.767 389.805 104.91 391.166C105.161 391.527 105.468 391.777 105.719 392.027C105.942 392.277 106.165 392.444 106.36 392.583C106.723 392.833 106.918 392.972 106.918 392.972C106.974 392.916 106.109 392.472 104.994 391.083C103.906 389.722 102.68 387.332 102.289 383.999C102.066 382.332 102.066 380.471 102.373 378.471C102.568 377.471 102.791 376.443 103.237 375.415C103.656 374.415 104.157 373.387 104.715 372.331C105.831 370.22 107.169 368.026 108.368 365.581C109.567 363.164 110.627 360.414 110.85 357.358C111.073 354.33 110.599 351.163 110.85 347.941C110.933 346.302 111.324 344.691 111.993 343.163C112.662 341.607 113.61 340.163 114.586 338.69C115.59 337.246 116.65 335.773 117.542 334.162C118.462 332.551 119.243 330.773 119.41 328.828C119.857 324.911 117.542 321.245 118.128 317.383C118.407 315.466 119.355 313.688 120.47 312.022C121.585 310.327 122.896 308.716 123.984 306.91C126.214 303.299 127.274 299.049 128.083 294.798C128.891 290.548 129.449 286.159 131.038 282.02C131.847 279.964 132.851 277.936 134.189 276.158C135.528 274.38 137.257 272.88 139.264 271.852L138.79 271.602C138.818 271.741 138.818 271.88 138.846 272.019C139.097 274.297 139.543 276.547 139.822 278.797C140.101 281.047 140.212 283.27 140.101 285.492C140.045 286.603 139.989 287.742 139.822 288.77C139.599 289.826 139.153 290.826 138.735 291.854C137.87 293.882 137.006 295.909 136.392 298.021C135.723 300.104 135.528 302.299 135.333 304.41C135.082 306.521 134.886 308.633 134.663 310.716C134.217 314.827 133.911 318.967 132.265 322.55C131.429 324.328 130.341 325.995 129.533 327.801C128.696 329.578 128.334 331.551 128.222 333.468C128.027 337.246 128.557 340.968 127.553 344.329C126.549 347.691 124.402 350.469 123.342 353.663C122.199 356.858 122.701 360.192 123.175 363.136C123.677 366.081 124.179 368.97 123.537 371.581C122.98 374.22 121.111 376.137 119.94 378.248C119.327 379.276 118.908 380.415 118.741 381.526C118.574 382.665 118.602 383.749 118.546 384.749C118.518 385.777 118.462 386.777 118.156 387.61C117.849 388.471 117.235 389.138 116.622 389.694C115.339 390.777 113.973 391.416 112.774 391.888C111.575 392.361 110.487 392.611 109.623 392.749C108.758 392.916 108.061 392.944 107.615 392.972C107.169 392.944 106.918 392.972 106.918 392.972Z" fill="#4A3387"/>
<path d="M137.452 276.964C137.424 276.964 137.396 277.075 137.34 277.269C137.285 277.491 137.229 277.797 137.145 278.158C136.95 278.936 136.727 280.103 136.364 281.547C135.974 283.02 135.082 284.659 134.329 286.714C133.548 288.715 132.767 291.076 132.042 293.687C131.289 296.326 130.648 299.243 129.979 302.354C129.254 305.466 128.557 308.827 126.856 311.966C126.075 313.577 125.155 315.189 124.458 316.966C123.705 318.744 123.342 320.689 123.063 322.606C122.617 326.523 121.92 330.467 121 334.523C119.076 342.607 117.235 350.274 115.562 357.275C113.833 364.248 112.272 370.526 110.989 375.832C109.706 381.082 108.675 385.332 107.95 388.36C107.615 389.805 107.364 390.944 107.169 391.749C107.085 392.111 107.03 392.416 106.974 392.638C106.918 392.861 106.918 392.944 106.918 392.972C106.946 392.972 106.974 392.861 107.03 392.666C107.085 392.444 107.169 392.138 107.28 391.805C107.504 390.972 107.81 389.833 108.201 388.416C108.954 385.416 110.069 381.165 111.407 375.943C112.746 370.637 114.363 364.386 116.12 357.414C117.821 350.413 119.661 342.718 121.613 334.662C122.533 330.606 123.231 326.578 123.677 322.717C123.928 320.772 124.318 318.911 125.015 317.189C125.712 315.466 126.577 313.855 127.385 312.244C129.114 309.021 129.811 305.577 130.481 302.465C131.15 299.326 131.763 296.437 132.46 293.798C133.158 291.187 133.91 288.853 134.663 286.825C135.388 284.798 136.253 283.131 136.587 281.631C136.922 280.131 137.117 278.964 137.257 278.186C137.312 277.825 137.368 277.519 137.424 277.269C137.452 277.075 137.452 276.964 137.452 276.964Z" fill="#4A3387"/>
<path d="M108.675 392.972C115.089 389.138 116.873 377.526 114.14 370.581C111.408 363.609 106.667 357.275 105.914 349.83C105.329 344.135 107.169 338.246 105.803 332.662C103.935 325.134 96.5173 319.356 96.573 311.605C96.6009 307.244 99.0548 303.132 98.8317 298.799C98.5529 293.465 94.4259 289.27 91.8605 284.603C87.9288 277.436 87.622 268.935 86.2557 260.879C84.8614 252.851 81.7383 244.239 74.544 240.322C73.5402 247.156 71.7556 251.851 72.369 261.101C72.5921 264.435 76.496 270.797 77.0816 278.075C77.4162 282.436 77.6671 286.798 77.946 291.159C78.2248 295.409 78.5316 299.715 80.0931 303.688C81.2643 306.716 83.1604 309.466 84.0528 312.605C85.7259 318.522 83.6066 324.911 84.973 330.912C86.1162 335.968 89.6576 340.329 90.4105 345.468C91.4701 352.691 86.8134 360.219 89.2672 367.109C90.4663 370.526 93.3105 373.248 94.1192 376.776C94.7605 379.499 94.1192 382.415 94.6769 385.166C95.625 389.583 104.13 393 108.675 392.694V392.972Z" fill="#4A3387"/>
<path d="M76.3562 247.1C76.3562 247.1 76.3562 247.212 76.3841 247.462C76.4399 247.767 76.4677 248.128 76.5514 248.601C76.6908 249.573 76.8581 251.045 77.2206 252.906C77.5831 254.795 78.587 256.907 79.3678 259.462C80.2043 262.018 81.0408 264.963 81.7937 268.241C82.5466 271.547 83.188 275.186 83.8293 279.103C84.5264 282.992 85.2515 287.298 87.2034 291.381C88.1236 293.409 89.1553 295.465 89.9361 297.66C90.7169 299.826 91.1073 302.16 91.3303 304.577C91.6928 309.41 92.3621 314.466 93.3102 319.522C95.3457 329.662 97.2698 339.301 99.0265 348.08C100.895 356.803 102.568 364.692 103.962 371.304C105.384 377.887 106.528 383.221 107.336 386.971C107.754 388.777 108.061 390.194 108.284 391.222C108.396 391.666 108.479 392.055 108.563 392.333C108.619 392.583 108.647 392.694 108.675 392.694C108.675 392.694 108.675 392.555 108.619 392.305C108.563 392.027 108.507 391.666 108.424 391.194C108.229 390.166 107.95 388.749 107.587 386.916C106.834 383.165 105.747 377.804 104.408 371.22C103.042 364.581 101.425 356.691 99.6121 347.941C97.8554 339.162 95.9313 329.523 93.9236 319.411C93.0034 314.327 92.3342 309.383 91.9438 304.521C91.7207 302.104 91.3303 299.687 90.4938 297.437C89.713 295.215 88.6534 293.159 87.7611 291.131C85.7813 287.103 85.0841 282.909 84.3591 279.019C83.662 275.102 82.9928 271.436 82.212 268.158C81.4591 264.852 80.5668 261.907 79.7024 259.351C78.8658 256.796 77.862 254.684 77.4716 252.851C77.0812 251.017 76.8581 249.545 76.6629 248.573C76.5793 248.128 76.5235 247.739 76.4677 247.462C76.412 247.212 76.3841 247.1 76.3562 247.1Z" fill="#F2F2F1"/>
<path d="M223.7 3.27798C229.193 -3.11135 243.498 0.916709 253.314 6.13929C253.314 6.13929 260.062 9.30618 262.571 10.973H262.655L285.604 8.13943C287.472 7.88942 289.341 8.22277 291.014 9.08394L292.91 10.0285C293.858 10.5007 293.802 11.8897 292.826 12.3064L275.928 19.5013C275.928 19.5847 275.928 19.6125 275.928 19.6958C284.907 25.5851 292.603 30.6132 292.603 30.6132L292.854 30.7799C295.977 32.78 299.77 33.5301 303.45 32.8634L312.374 31.2799C312.848 31.1966 313.322 31.2244 313.74 31.3911C315.329 32.03 315.636 34.1135 314.326 35.1969L303.98 43.8086C302.363 45.1698 300.132 45.4476 298.208 44.5864L293.356 42.364L268.873 30.7243L271.662 44.642C271.773 45.1976 271.327 45.7254 270.742 45.6976L269.57 45.6698C268.009 45.6143 266.559 44.7531 265.778 43.3641L255.907 24.585L226.99 10.8896C223.142 9.11172 221.776 5.83372 223.7 3.27798Z" fill="#E7E7E8"/>
<path d="M63.0833 64.8101L135.807 63.1711C135.807 63.1711 129.114 51.6425 110.432 53.7815C92.5854 55.7816 91.5258 48.4478 82.4074 47.7533C73.2891 47.0588 65.8717 54.1704 63.0833 64.8101Z" fill="#DCDEE9"/>
<path d="M403.083 103.979H471.595C471.595 103.979 465.544 93.0064 447.921 94.5899C431.079 96.1178 430.214 89.2006 421.654 88.3394C413.093 87.4783 405.955 94.0343 403.083 103.979Z" fill="#DCDEE9"/>
<path d="M104.52 28.8353H156.776C156.776 28.8353 152.147 20.4736 138.707 21.6959C125.852 22.8627 125.183 17.5568 118.658 16.9178C112.133 16.2789 106.695 21.2515 104.52 28.8353Z" fill="#DCDEE9"/>
<path d="M403.166 138.426H437.353C437.353 138.426 434.314 132.926 425.53 133.731C417.109 134.482 416.69 131.037 412.424 130.62C408.158 130.176 404.588 133.454 403.166 138.426Z" fill="#DCDEE9"/>
<path d="M386.073 44.1419H420.26C420.26 44.1419 417.22 38.6693 408.437 39.4472C400.015 40.225 399.597 36.7525 395.331 36.3358C391.064 35.9191 387.495 39.1694 386.073 44.1419Z" fill="#FCFBFB"/>
<path d="M407.6 227.377C407.461 226.043 406.289 225.016 404.923 225.016H384.79C383.117 225.016 381.862 226.544 382.197 228.183C382.448 229.46 383.563 230.349 384.874 230.322H404.923C406.512 230.322 407.767 228.96 407.6 227.377Z" fill="#303B3F"/>
<path d="M451.519 386.471C450.989 389.972 453.415 393.222 456.928 393.722C460.442 394.222 463.704 391.805 464.206 388.333C464.736 384.832 462.31 381.582 458.797 381.054C455.283 380.554 452.021 382.971 451.519 386.471Z" fill="#303B3F"/>
<path d="M456.538 387.416L452.606 379.36L454.669 378.082L458.462 386.471L456.538 387.416Z" fill="#405C68"/>
<path d="M420.26 288.214L395.944 224.988L391.315 227.321L414.878 289.937L420.26 288.214Z" fill="#303B3F"/>
<path d="M440.532 385.888L476.42 371.665C477.758 371.137 478.4 369.637 477.87 368.303L442.149 278.714C439.333 271.658 431.33 268.213 424.247 271.019L409.134 276.991C402.051 279.797 398.593 287.77 401.41 294.826L437.13 384.416C437.688 385.749 439.194 386.416 440.532 385.888Z" fill="#2D3167"/>
<path d="M437.074 384.888C437.074 384.888 437.018 384.693 436.879 384.332C436.74 383.943 436.544 383.416 436.293 382.749C435.736 381.332 434.955 379.276 433.951 376.637C431.888 371.331 428.904 363.72 425.223 354.275C421.542 344.83 417.137 333.607 412.257 321.133C409.803 314.911 407.237 308.355 404.56 301.577C403.919 299.882 403.222 298.16 402.553 296.437C401.828 294.743 401.605 292.909 401.8 291.076C402.246 287.437 404.784 284.048 408.353 282.686C411.866 281.297 416.049 282.02 418.865 284.409C420.26 285.603 421.347 287.131 421.961 288.853C422.658 290.576 423.327 292.27 423.996 293.993C426.673 300.771 429.239 307.299 431.692 313.55C436.628 325.995 441.062 337.218 444.798 346.635C448.535 356.053 451.546 363.664 453.666 368.942C454.725 371.554 455.534 373.582 456.092 374.998C456.37 375.665 456.594 376.193 456.761 376.554C456.9 376.915 456.984 377.082 456.984 377.082C456.984 377.082 456.928 376.915 456.789 376.554C456.649 376.165 456.454 375.637 456.203 374.97C455.673 373.554 454.865 371.498 453.861 368.859C451.797 363.553 448.842 355.914 445.161 346.496C441.452 337.051 437.074 325.828 432.194 313.355C429.74 307.105 427.175 300.576 424.498 293.77C423.829 292.076 423.16 290.381 422.49 288.659C421.849 286.881 420.678 285.242 419.228 283.992C416.272 281.464 411.866 280.686 408.13 282.186C404.393 283.603 401.716 287.159 401.242 291.02C401.047 292.937 401.298 294.909 402.051 296.632C402.72 298.354 403.389 300.076 404.059 301.771C406.735 308.549 409.329 315.077 411.783 321.328C416.69 333.773 421.124 344.996 424.861 354.414C428.597 363.831 431.637 371.442 433.728 376.721C434.788 379.332 435.596 381.36 436.182 382.777C436.461 383.443 436.656 383.971 436.823 384.36C436.963 384.693 437.074 384.888 437.074 384.888Z" fill="#7FAEF2" stroke="#7FAEF2" stroke-width="0.0761978"/>
<path d="M434.732 321.217C434.816 321.439 439.528 319.606 445.245 317.078C450.961 314.577 455.534 312.327 455.45 312.105C455.367 311.855 450.682 313.716 444.966 316.216C439.249 318.744 434.676 320.967 434.732 321.217Z" fill="#7FAEF2"/>
<path d="M402.971 224.988L398.76 216.737C398.314 215.793 397.506 215.07 396.558 214.682L389.949 211.931L372.158 187.902L370.513 206.32L381.834 217.96C381.834 217.96 388.945 232.849 394.745 232.099C394.745 232.099 394.55 229.905 393.574 228.238C391.678 224.988 393.713 224.988 393.964 225.016H398.788L402.971 224.988Z" fill="#F8C0A9"/>
<path d="M373.943 212.293C374.473 213.098 378.878 219.015 378.878 219.015L391.315 209.987L386.798 205.598L373.943 212.293Z" fill="#E94D5C"/>
<path d="M393.574 228.238C393.574 228.238 396.809 230.072 397.227 231.655V232.572L393.351 232.016L393.574 228.238Z" fill="#F8C0A9"/>
<path d="M397.924 230.016C397.394 229.516 396.836 228.988 396.613 228.294C396.39 227.627 396.669 226.71 397.366 226.488C398.036 226.266 398.705 226.738 399.235 227.21C399.904 227.821 400.545 228.46 401.131 229.127C401.633 229.683 402.135 230.377 401.967 231.099C401.828 231.655 401.242 232.072 400.629 232.099C400.043 232.155 399.458 231.849 399.011 231.461C398.593 231.044 398.286 230.516 398.036 229.988L397.924 230.016Z" fill="#F8C0A9"/>
<path d="M401.214 229.738C400.684 229.238 400.127 228.71 399.904 228.016C399.681 227.321 399.959 226.432 400.657 226.21C401.326 225.988 401.995 226.46 402.525 226.932C403.194 227.544 403.835 228.183 404.449 228.849C404.923 229.377 405.425 230.099 405.258 230.794C405.118 231.377 404.533 231.794 403.919 231.822C403.334 231.849 402.748 231.572 402.302 231.183C401.883 230.766 401.577 230.238 401.326 229.71L401.214 229.738Z" fill="#F8C0A9"/>
<path d="M391.315 215.626C391.315 215.515 392.152 215.543 393.128 216.376C393.574 216.848 393.881 217.515 394.271 218.21C394.606 218.932 394.968 219.793 394.884 220.793C394.829 221.793 394.271 222.571 393.881 223.238C393.462 223.877 393.239 224.543 393.1 225.099C392.821 226.238 393.044 226.96 392.96 226.96C392.905 227.016 392.542 226.266 392.765 225.016C392.877 224.432 393.072 223.71 393.49 223.015C393.881 222.321 394.355 221.599 394.41 220.765C394.466 219.904 394.159 219.099 393.853 218.404C393.518 217.71 393.239 217.043 392.877 216.626C392.486 216.237 392.068 215.987 391.789 215.821C391.51 215.654 391.343 215.654 391.315 215.626Z" fill="#F39B70"/>
<path d="M257.134 130.842L243.916 172.929L282.788 213.404L318.424 204.181L257.134 130.842Z" fill="#F8F8F9"/>
<path d="M257.134 130.842C257.134 130.842 257.245 130.954 257.44 131.176C257.636 131.426 257.942 131.787 258.333 132.231C259.141 133.176 260.285 134.565 261.79 136.343C264.83 139.954 269.236 145.177 274.729 151.705C285.743 164.845 301.108 183.152 318.62 204.014L318.871 204.32L318.508 204.403C312.011 206.07 305.291 207.82 298.403 209.626C293.133 210.987 287.918 212.32 282.871 213.626L282.732 213.682L282.62 213.57C267.981 198.292 254.624 184.374 243.777 173.068L243.693 172.984L243.749 172.873C247.848 159.983 251.194 149.455 253.509 142.121C254.68 138.51 255.572 135.676 256.186 133.731C256.492 132.787 256.715 132.065 256.883 131.565C257.05 131.065 257.134 130.842 257.134 130.842C256.687 132.315 252.031 147.371 244.111 172.984L244.056 172.79C254.931 184.096 268.288 197.986 282.983 213.237L282.732 213.154C287.807 211.848 292.993 210.515 298.292 209.126C305.151 207.348 311.899 205.625 318.369 203.931L318.257 204.32C300.885 183.485 285.632 165.15 274.701 152.011C269.236 145.427 264.858 140.149 261.818 136.509C260.312 134.704 259.141 133.287 258.333 132.315C257.942 131.842 257.663 131.481 257.44 131.231C257.245 130.981 257.134 130.842 257.134 130.842Z" fill="#303B3F"/>
<path d="M258.333 158.622C260.201 155.427 265.025 154.483 267.925 156.733C270.379 158.594 271.494 162.15 274.422 163.095C276.513 163.761 278.856 162.761 281.031 163.15C283.596 163.622 285.492 165.928 286.245 168.428C286.97 170.901 286.775 173.568 286.58 176.151L273.92 176.318L258.333 158.622Z" fill="#E7E7E8"/>
<path d="M234.965 134.676L316.891 218.793L283.513 215.432L236.806 166.317L234.965 134.676Z" fill="#F8F8F9"/>
<path d="M234.965 134.676C235.049 135.898 235.718 146.732 236.973 166.289L236.917 166.178C248.852 178.735 265.192 195.847 283.68 215.265L283.541 215.182C291.795 216.015 300.355 216.876 309.139 217.765C311.816 218.043 314.465 218.293 316.919 218.543L316.724 218.96C271.16 171.984 236.778 136.537 234.965 134.676C236.778 136.537 271.299 171.845 317.086 218.626L317.532 219.099L316.863 219.043C314.409 218.793 311.76 218.515 309.083 218.265C300.299 217.376 291.739 216.487 283.485 215.654H283.401L283.345 215.598C264.886 196.153 248.601 178.985 236.694 166.428L236.638 166.373V166.317C235.607 146.732 235.021 135.898 234.965 134.676Z" fill="#303B3F"/>
<path d="M267.033 168.123C264.495 171.012 264.857 175.651 267.033 178.818C269.208 182.013 272.749 183.957 276.346 185.346C279.274 186.457 282.871 187.18 285.269 185.207L267.033 168.123Z" fill="#E7E7E8"/>
<path d="M262.766 163.539C262.934 164.234 262.041 164.761 261.316 164.706C260.591 164.623 259.922 164.234 259.225 164.206C257.245 164.095 256.158 166.4 254.568 167.539C252.672 168.873 249.744 168.317 248.489 166.373C247.43 164.706 247.43 162.261 245.757 161.233C244.809 160.65 243.61 160.733 242.55 160.928C241.462 161.122 240.347 161.456 239.287 161.261C238.2 161.095 237.112 160.261 237.112 159.178L236.527 158.261L235.105 135.037L262.766 163.539Z" fill="#E7E7E8"/>
<path d="M302.697 217.098C304.538 217.404 306.322 216.459 306.601 214.626C306.88 212.765 305.43 210.848 303.562 210.598C301.889 210.376 300.16 211.348 298.57 210.848C296.73 210.265 295.977 208.153 295.503 206.32C295.057 204.459 294.415 202.347 292.631 201.625C289.703 200.458 286.608 204.181 283.54 203.375C281.282 202.764 280.389 200.042 278.605 198.486C277.183 197.264 275.091 196.847 273.307 197.458C271.522 198.069 270.462 199.069 270.072 200.903L283.596 215.126L302.697 217.098Z" fill="#E7E7E8"/>
<path d="M280.306 359.247L276.932 378.582C276.932 378.582 256.074 381.665 255.098 385.193L292.491 393.027L298.989 363.136L280.306 359.247Z" fill="#E94D5C"/>
<path d="M288.169 382.193C287.974 382.193 287.779 382.138 287.584 382.054C286.887 381.721 286.468 380.638 286.859 379.971C287.138 379.554 287.723 379.249 288.253 379.249C288.532 379.249 288.755 379.304 288.95 379.471C289.564 379.86 289.842 380.721 289.536 381.36C289.285 381.86 288.727 382.193 288.169 382.193Z" fill="#F6BFC8"/>
<path d="M292.547 392.805L293.133 390.055L292.547 392.805ZM255.098 385.193C255.154 384.304 256.13 383.888 256.659 383.693C255.795 384.193 255.237 384.693 255.098 385.193Z" fill="#FEFEFE"/>
<path d="M292.491 393.027L291.348 392.805L292.491 393.027L292.547 392.805L292.491 393.027Z" fill="#B1B6B7"/>
<path d="M292.491 393.027L291.348 392.805L255.098 385.193C255.237 384.693 255.795 384.193 256.659 383.693C256.855 383.638 256.994 383.61 256.994 383.61L293.133 390.055L292.547 392.805L292.491 393.027Z" fill="#F6BFC8"/>
<path d="M276.374 378.276C276.346 378.471 277.238 378.721 278.019 379.499C278.8 380.249 279.107 381.138 279.274 381.11C279.469 381.11 279.413 379.971 278.465 379.054C277.517 378.11 276.374 378.11 276.374 378.276Z" fill="#303B3F"/>
<path d="M272.108 379.054C272.024 379.249 272.749 379.721 273.195 380.61C273.697 381.499 273.669 382.36 273.864 382.388C274.032 382.443 274.366 381.415 273.781 380.304C273.195 379.193 272.136 378.887 272.108 379.054Z" fill="#303B3F"/>
<path d="M268.873 383.277C269.04 383.36 269.486 382.499 269.235 381.388C268.985 380.304 268.204 379.721 268.092 379.86C267.953 379.999 268.399 380.638 268.594 381.554C268.817 382.443 268.706 383.221 268.873 383.277Z" fill="#303B3F"/>
<path d="M277.629 373.943C277.657 374.137 278.549 374.054 279.581 374.332C280.585 374.609 281.338 375.137 281.449 374.998C281.589 374.887 280.947 374.054 279.748 373.72C278.549 373.387 277.573 373.804 277.629 373.943Z" fill="#303B3F"/>
<path d="M297.455 370.22L298.125 367.137L297.455 370.22Z" fill="#BDBBBA"/>
<path d="M297.455 370.22L279.023 366.525L279.637 363.081L298.124 367.137L297.455 370.22Z" fill="#BF383D"/>
<path d="M278.382 370.053C278.354 370.137 279.051 370.415 280.25 370.442C280.836 370.47 281.561 370.415 282.342 370.248C282.732 370.165 283.122 370.053 283.541 369.915C283.736 369.831 283.959 369.776 284.182 369.609C284.433 369.442 284.656 368.998 284.489 368.637C284.349 368.331 284.043 368.137 283.764 368.053C283.485 367.998 283.262 367.998 283.039 367.998C282.62 368.026 282.174 368.081 281.784 368.164C281.003 368.331 280.334 368.637 279.832 368.942C278.8 369.553 278.354 370.165 278.41 370.22C278.466 370.304 279.023 369.803 280.055 369.331C280.557 369.109 281.198 368.887 281.923 368.748C282.286 368.692 282.648 368.637 283.067 368.637C283.485 368.637 283.819 368.692 283.875 368.887C283.903 368.97 283.903 368.998 283.792 369.081C283.68 369.192 283.513 369.248 283.318 369.331C282.927 369.47 282.565 369.581 282.202 369.692C281.477 369.859 280.808 369.942 280.25 369.998C279.107 370.053 278.382 369.97 278.382 370.053Z" fill="#303B3F"/>
<path d="M278.549 370.387C278.605 370.415 279.107 369.831 279.441 368.665C279.581 368.109 279.665 367.387 279.609 366.581C279.581 366.192 279.497 365.775 279.386 365.359C279.218 364.942 279.079 364.386 278.382 364.164C278.019 364.053 277.629 364.275 277.49 364.498C277.294 364.748 277.239 364.942 277.155 365.164C276.988 365.581 276.904 365.998 276.876 366.414C276.82 367.22 277.015 367.942 277.266 368.498C277.796 369.637 278.521 369.998 278.549 369.942C278.633 369.859 278.075 369.387 277.713 368.331C277.517 367.831 277.406 367.164 277.49 366.47C277.517 366.109 277.601 365.748 277.74 365.387C277.88 364.998 278.103 364.72 278.242 364.775C278.438 364.831 278.689 365.192 278.772 365.525C278.884 365.914 278.967 366.275 279.023 366.637C279.107 367.359 279.079 368.026 278.995 368.581C278.8 369.692 278.465 370.331 278.549 370.387Z" fill="#303B3F"/>
<path d="M403.166 360.442L395.08 349.913L394.662 349.358L380.886 359.581L393.658 373.526L393.184 387.666C386.073 389.499 385.013 393.027 385.013 393.027H399.792L413.205 367.276L403.166 360.442Z" fill="#E94D5C"/>
<path d="M385.013 393.027L386.687 390.833L398.677 390.166L411.058 365.831L413.205 367.275L399.792 393.027H385.013Z" fill="#F6BFC8"/>
<path d="M393.267 381.193C393.379 381.332 394.243 380.86 395.386 380.888C396.53 380.888 397.366 381.388 397.478 381.249C397.617 381.138 396.781 380.249 395.386 380.249C393.992 380.221 393.128 381.082 393.267 381.193Z" fill="#303B3F"/>
<path d="M393.518 377.693C393.657 377.804 394.327 376.915 395.498 376.693C396.669 376.443 397.617 376.998 397.701 376.86C397.756 376.776 397.589 376.526 397.171 376.304C396.78 376.082 396.083 375.915 395.358 376.054C394.633 376.193 394.076 376.609 393.797 376.998C393.49 377.36 393.434 377.637 393.518 377.693Z" fill="#303B3F"/>
<path d="M393.407 373.193C393.574 373.276 394.076 372.415 395.108 372.054C396.139 371.692 397.06 372.054 397.143 371.887C397.171 371.804 396.976 371.609 396.586 371.442C396.167 371.304 395.526 371.22 394.885 371.442C394.243 371.692 393.797 372.137 393.574 372.498C393.351 372.887 393.323 373.165 393.407 373.193Z" fill="#303B3F"/>
<path d="M389.447 369.692C389.642 369.776 390.06 368.914 390.953 368.331C391.873 367.72 392.793 367.664 392.821 367.47C392.849 367.303 391.706 367.053 390.59 367.803C389.475 368.526 389.28 369.692 389.447 369.692Z" fill="#303B3F"/>
<path d="M387.523 366.692C387.607 366.72 388.081 366.137 388.806 365.136C389.224 364.553 389.642 363.97 390.061 363.359C390.284 363.025 390.562 362.72 390.758 362.192C390.813 361.914 390.813 361.581 390.646 361.275C390.507 360.969 390.088 360.775 389.754 360.831C389.112 360.914 388.75 361.247 388.387 361.525C388.025 361.858 387.718 362.192 387.495 362.553C387.021 363.275 386.798 364.053 386.714 364.692C386.575 365.998 386.993 366.72 387.049 366.692C387.16 366.664 386.937 365.914 387.16 364.748C387.3 364.192 387.551 363.525 387.997 362.886C388.22 362.581 388.471 362.275 388.806 362.025C389.112 361.775 389.503 361.497 389.81 361.47C389.949 361.47 390.033 361.497 390.088 361.608C390.144 361.72 390.172 361.858 390.144 362.025C390.061 362.331 389.782 362.692 389.559 363.053C389.168 363.664 388.806 364.275 388.443 364.886C387.802 365.942 387.439 366.637 387.523 366.692Z" fill="#303B3F"/>
<path d="M386.993 367.109C387.077 367.109 387.021 366.331 386.212 365.47C385.431 364.609 383.73 363.72 381.834 364.664C381.695 364.775 381.583 364.998 381.611 365.192C381.611 365.414 381.695 365.553 381.779 365.664C381.946 365.887 382.141 365.998 382.308 366.137C382.643 366.359 383.005 366.553 383.368 366.72C384.065 367.025 384.734 367.192 385.292 367.248C386.435 367.387 387.132 367.164 387.132 367.081C387.105 366.998 386.435 367.025 385.376 366.803C384.846 366.692 384.232 366.498 383.619 366.192C383.312 366.025 382.978 365.831 382.671 365.609C382.531 365.498 382.364 365.387 382.308 365.275C382.225 365.164 382.253 365.192 382.28 365.136C382.308 365.109 382.504 365.025 382.699 364.998C382.894 364.942 383.061 364.914 383.256 364.914C383.619 364.886 383.981 364.914 384.288 364.97C384.957 365.109 385.487 365.442 385.905 365.775C386.686 366.47 386.909 367.164 386.993 367.109Z" fill="#303B3F"/>
<path d="M403.166 368.581C402.19 368.581 401.409 367.803 401.409 366.831C401.409 365.887 402.19 365.081 403.166 365.081C404.142 365.081 404.923 365.887 404.923 366.831C404.923 367.803 404.142 368.581 403.166 368.581Z" fill="#F6BFC8"/>
<path d="M396.948 352.33L396.641 351.913L396.948 352.33Z" fill="#BDBBBA"/>
<path d="M385.013 364.081L382.169 360.97L395.275 350.163L396.641 351.913L396.948 352.33L385.013 364.081Z" fill="#BF383D"/>
<path d="M345.473 115.98C353.281 113.258 361.897 112.869 369.928 114.897C373.525 115.786 377.178 117.258 379.492 120.147C382.197 123.564 382.56 128.231 382.978 132.593C383.814 141.426 385.46 150.177 387.858 158.733C389.838 165.873 392.375 172.873 393.463 180.179C394.55 187.513 394.048 195.347 390.312 201.708C384.539 211.57 372.27 215.904 360.837 216.098C354.814 216.209 348.652 215.321 343.298 212.543C337.972 209.765 333.538 204.903 332.228 199.069L345.473 115.98Z" fill="#E94D5C"/>
<path d="M359.945 216.126C354.507 216.126 348.986 215.293 344.106 212.959C354.145 211.098 365.438 207.57 373.943 203.097L360.28 171.095L365.187 140.038C366.024 131.648 361.925 123.314 354.452 119.342C353.364 118.786 352.193 118.286 350.91 117.869L371.88 115.425C374.808 116.369 377.596 117.786 379.492 120.147C382.197 123.564 382.56 128.231 382.978 132.593C383.814 141.426 385.46 150.177 387.858 158.733C389.838 165.873 392.375 172.873 393.463 180.179C393.797 182.374 393.964 184.568 393.964 186.791C393.964 192.013 392.933 197.236 390.312 201.708C389.391 203.264 388.332 204.653 387.161 205.931C383.87 209.459 379.604 211.987 374.919 213.654C370.43 215.237 365.55 216.015 360.837 216.098C360.531 216.126 360.224 216.126 359.945 216.126Z" fill="#8E2F30"/>
<path d="M361.172 125.009C361.116 125.092 362.761 126.12 364.462 128.676C365.299 129.926 366.163 131.537 367 133.343C367.864 135.176 368.756 137.232 370.039 139.232C371.322 141.232 372.939 142.927 374.78 143.954C376.592 145.01 378.572 145.26 380.133 144.982C381.695 144.732 382.838 144.066 383.48 143.454C383.814 143.177 384.009 142.899 384.149 142.704C384.26 142.51 384.316 142.399 384.316 142.399C384.26 142.371 383.982 142.76 383.312 143.288C382.671 143.788 381.556 144.371 380.078 144.566C378.6 144.76 376.759 144.482 375.058 143.454C373.357 142.482 371.796 140.843 370.569 138.899C369.314 136.954 368.422 134.926 367.502 133.12C366.637 131.287 365.717 129.676 364.797 128.426C363.904 127.175 362.984 126.287 362.315 125.731C361.646 125.203 361.2 124.981 361.172 125.009Z" fill="#E7E7E8"/>
<path d="M377.763 212.987C377.763 212.987 377.791 212.737 377.791 212.265C377.763 211.709 377.763 211.015 377.735 210.153C377.708 208.32 377.624 205.681 377.457 202.431C377.178 195.902 376.676 186.874 375.895 176.929C375.086 166.984 374.194 157.983 373.441 151.511C373.079 148.26 372.772 145.621 372.521 143.816C372.382 142.954 372.298 142.26 372.214 141.732C372.158 141.26 372.103 141.01 372.075 141.01C372.047 141.01 372.075 141.26 372.103 141.732C372.158 142.288 372.214 142.982 372.27 143.843C372.465 145.732 372.716 148.344 373.023 151.538C373.664 158.039 374.501 167.039 375.282 176.985C376.062 186.902 376.648 195.93 377.038 202.431C377.233 205.653 377.401 208.264 377.512 210.153C377.568 211.015 377.624 211.737 377.652 212.265C377.708 212.737 377.735 212.987 377.763 212.987Z" fill="#E7E7E8"/>
<path d="M375.393 173.068C375.421 173.234 379.018 173.179 383.424 172.623C387.857 172.095 391.343 171.262 391.315 171.095C391.287 170.929 387.746 171.484 383.368 172.04C378.962 172.568 375.393 172.873 375.393 173.068Z" fill="#E7E7E8"/>
<path d="M378.321 172.984C378.237 172.956 378.014 173.595 377.819 174.679C377.735 175.234 377.652 175.873 377.624 176.596C377.624 176.985 377.624 177.401 377.847 177.846C378.042 178.29 378.488 178.651 379.046 178.651C379.353 178.651 379.659 178.512 379.827 178.29C380.022 178.068 380.078 177.818 380.106 177.596C380.133 177.123 380.022 176.735 379.938 176.373C379.743 175.679 379.52 175.04 379.297 174.54C378.823 173.54 378.405 173.012 378.321 173.04C378.265 173.095 378.544 173.707 378.879 174.707C379.074 175.207 379.241 175.818 379.381 176.512C379.464 176.846 379.548 177.207 379.52 177.54C379.492 177.846 379.325 178.04 379.046 178.04C378.432 178.04 378.154 177.29 378.181 176.623C378.181 175.901 378.209 175.262 378.265 174.734C378.321 173.651 378.405 172.984 378.321 172.984Z" fill="#E7E7E8"/>
<path d="M337.693 119.397L375.56 115.008C380.524 114.425 384.065 109.952 383.507 105.007L382.671 98.0068C382.085 93.062 377.596 89.534 372.632 90.0896L334.765 94.5065C329.801 95.0899 326.26 99.5625 326.818 104.507L327.654 111.508C328.24 116.453 332.729 119.981 337.693 119.397Z" fill="#405C68"/>
<path d="M372.019 90.7007C372.019 90.6729 371.907 90.6174 371.656 90.534C371.405 90.4507 371.043 90.3951 370.541 90.3674C369.565 90.3396 368.087 90.6452 366.665 91.7008C365.271 92.7564 363.681 94.2287 362.761 96.3956C361.785 98.5068 361.478 101.118 361.674 103.729C361.841 106.396 362.817 108.896 364.239 110.73C365.661 112.591 367.529 113.73 369.175 114.286C370.848 114.841 372.298 114.841 373.274 114.73C373.748 114.675 374.11 114.591 374.361 114.508C374.612 114.425 374.724 114.369 374.724 114.369C374.724 114.313 374.194 114.425 373.246 114.48C372.298 114.536 370.904 114.452 369.314 113.869C367.753 113.313 365.996 112.174 364.685 110.397C363.347 108.619 362.427 106.257 362.287 103.702C362.092 101.118 362.371 98.6457 363.263 96.59C364.1 94.5621 365.605 93.0898 366.916 92.0619C368.227 91.0063 369.621 90.6452 370.541 90.6174C371.489 90.5618 371.991 90.7563 372.019 90.7007Z" fill="#303B3F"/>
<path d="M350.38 92.5898L356.208 92.0342C354.647 92.4509 353.336 93.5621 352.472 94.8955C351.579 96.2289 351.105 97.8124 350.854 99.3958C349.795 106.091 353.392 113.286 359.136 116.925L354.424 117.536C354.424 117.536 340.955 105.535 350.38 92.5898Z" fill="#303B3F"/>
<path d="M343.744 104.924C346.727 105.73 350.101 105.063 352.555 103.174C355.009 101.257 356.487 98.1735 356.431 95.0622C356.348 92.1731 355.037 89.2284 355.957 86.4782C356.571 84.5892 358.16 83.1169 358.69 81.2001C359.471 78.3388 357.742 75.4497 356.097 73.0051C355.037 71.4216 353.949 69.8104 352.472 68.6159C350.994 67.4214 349.014 66.6435 347.146 67.0324L343.744 104.924Z" fill="#303B3F"/>
<path d="M316.974 67.3102C317.142 69.477 315.692 71.4216 314.214 73.0606C312.764 74.6996 311.147 76.422 310.84 78.5888C310.282 82.4224 314.047 85.9782 313.266 89.784C312.848 91.8397 311.174 93.4509 310.868 95.5344C310.589 97.5068 311.648 99.4513 312.987 100.979C314.325 102.479 315.943 103.757 317.114 105.396C318.341 107.119 319.01 109.174 319.902 111.091C320.795 113.008 321.994 114.925 323.862 115.925C326.678 117.453 330.61 116.73 332.757 119.092C334.849 121.37 337.386 121.731 339.979 123.453L316.974 67.3102Z" fill="#303B3F"/>
<path d="M350.659 70.6438C350.715 68.6436 348.875 67.1158 347.034 66.3935C345.166 65.6712 343.102 65.3934 341.457 64.31C340.007 63.3099 339.031 61.7821 337.776 60.532C334.765 57.4762 330.024 56.1983 325.842 57.3373C321.687 58.4763 318.257 61.9765 317.197 66.1435C316.5 68.9492 316.974 72.2828 319.205 74.1718C321.798 76.3386 325.647 75.8664 328.965 75.1719C332.283 74.5052 336.02 73.8385 338.808 75.783C340.481 76.9498 341.429 78.8666 342.461 80.6167C343.465 82.3668 344.748 84.1725 346.672 84.8392C348.624 85.5059 351.245 84.367 351.301 82.3113L350.659 70.6438Z" fill="#303B3F"/>
<path d="M342.824 71.0327C344.524 71.2272 345.807 72.6995 345.779 74.4218L343.799 119.175C343.716 124.453 335.964 127.426 330.275 127.287C324.559 127.148 324.364 124.342 324.28 119.314C324.169 110.924 324.169 107.757 324.169 107.813C324.169 107.813 316.919 106.591 315.441 97.1734C314.716 92.4787 314.967 84.8115 315.385 78.5332C315.747 72.8662 319.512 65.949 325.172 66.5602L342.824 71.0327Z" fill="#F8C0A9"/>
<path d="M317.17 83.9225C317.142 84.5614 317.671 85.0892 318.341 85.1448C319.01 85.1726 319.568 84.6725 319.596 84.0614C319.623 83.4225 319.094 82.8669 318.424 82.8391C317.755 82.7835 317.197 83.2836 317.17 83.9225Z" fill="#303B3F"/>
<path d="M317.03 82.5335C317.197 82.7002 318.118 82.0057 319.428 82.0057C320.711 82.0057 321.687 82.6724 321.826 82.5057C321.882 82.4502 321.743 82.1724 321.324 81.8668C320.906 81.5612 320.209 81.2556 319.4 81.2556C318.592 81.2556 317.895 81.5612 317.504 81.8668C317.114 82.1724 316.974 82.4502 317.03 82.5335Z" fill="#303B3F"/>
<path d="M330.164 84.2559C330.136 84.8948 330.666 85.4226 331.335 85.4782C332.004 85.506 332.562 85.0337 332.59 84.3948C332.618 83.7558 332.088 83.2002 331.419 83.1725C330.749 83.1169 330.192 83.6169 330.164 84.2559Z" fill="#303B3F"/>
<path d="M329.857 82.8113C330.025 82.9502 330.945 82.2835 332.255 82.2835C333.538 82.2835 334.514 82.9502 334.653 82.7835C334.709 82.728 334.57 82.4224 334.152 82.1168C333.733 81.839 333.036 81.5334 332.227 81.5334C331.419 81.5334 330.722 81.839 330.331 82.1446C329.941 82.4502 329.801 82.728 329.857 82.8113Z" fill="#303B3F"/>
<path d="M325.117 92.4231C325.117 92.3675 324.308 92.2286 322.998 92.0342C322.663 92.0064 322.356 91.9508 322.301 91.7286C322.217 91.4786 322.356 91.1174 322.524 90.7285C322.83 89.9229 323.165 89.0895 323.5 88.2006C324.894 84.617 325.87 81.6445 325.73 81.589C325.591 81.5334 324.364 84.4225 322.97 88.0061C322.635 88.8951 322.328 89.7562 322.022 90.5618C321.91 90.923 321.687 91.3674 321.854 91.8675C321.938 92.1175 322.189 92.2842 322.412 92.3397C322.607 92.4231 322.802 92.4231 322.97 92.4231C324.28 92.5064 325.117 92.5064 325.117 92.4231Z" fill="#303B3F"/>
<path d="M324.168 107.813C324.168 107.813 330.526 108.23 336.856 104.479C336.856 104.479 333.761 110.952 324.308 110.035L324.168 107.813Z" fill="#F39B70"/>
<path d="M325.646 95.5622C326.12 94.951 326.957 94.6177 327.766 94.701C328.323 94.7566 328.909 95.0344 329.244 95.5066C329.578 95.9511 329.662 96.6178 329.355 97.0345C328.993 97.5346 328.268 97.6457 327.626 97.479C327.013 97.2845 326.483 96.8956 325.981 96.4789C325.842 96.3678 325.674 96.2567 325.591 96.09C325.507 95.9511 325.479 95.7289 325.591 95.6178L325.646 95.5622Z" fill="#F39B70"/>
<path d="M328.937 93.3398C328.742 93.3398 328.742 94.7288 327.515 95.7289C326.316 96.7289 324.81 96.59 324.782 96.7845C324.754 96.8678 325.117 97.0623 325.758 97.0623C326.371 97.0901 327.292 96.8956 328.045 96.2845C328.77 95.6733 329.104 94.8399 329.16 94.2843C329.216 93.6732 329.048 93.3398 328.937 93.3398Z" fill="#303B3F"/>
<path d="M329.299 80.5334C329.411 80.8667 330.721 80.7 332.255 80.8945C333.789 81.0612 335.016 81.5057 335.211 81.2001C335.322 81.0334 335.099 80.7 334.597 80.3667C334.095 80.0055 333.315 79.7 332.394 79.5889C331.474 79.4777 330.638 79.6166 330.08 79.8666C329.522 80.0889 329.243 80.3667 329.299 80.5334Z" fill="#303B3F"/>
<path d="M317.532 78.7555C317.755 79.061 318.647 78.7555 319.735 78.7555C320.822 78.6999 321.743 78.9499 321.938 78.6443C322.049 78.5054 321.91 78.1999 321.492 77.9221C321.101 77.6443 320.432 77.3943 319.707 77.422C318.954 77.4498 318.313 77.7276 317.95 78.0054C317.56 78.311 317.421 78.6166 317.532 78.7555Z" fill="#303B3F"/>
<path d="M349.404 102.035C346.811 102.563 343.995 101.757 342.043 99.9792C340.091 98.1735 339.087 95.4233 339.421 92.7842C339.728 90.4785 340.983 88.1172 340.174 85.9226C339.115 83.0336 335.044 82.1446 333.956 79.2555C333.315 77.5887 333.872 75.6164 333.175 73.9774C332.506 72.4217 330.861 71.5328 329.271 70.9494C327.682 70.3938 325.981 69.9771 324.642 68.9492C323.304 67.9214 322.467 65.9768 323.332 64.5045C330.387 65.3657 337.358 67.0324 343.995 69.5048C345.556 70.0882 347.173 70.7827 348.094 72.1439C349.042 73.5885 348.986 75.4497 348.93 77.1998C348.512 85.6448 348.121 94.1177 347.731 102.563L349.404 102.035Z" fill="#303B3F"/>
<path d="M354.507 109.869C354.452 109.869 354.647 108.952 354.033 107.507C353.727 106.813 353.197 106.007 352.416 105.23C351.635 104.452 350.604 103.729 349.349 103.063C348.122 102.396 346.7 101.785 345.25 100.951C343.8 100.146 342.322 99.0069 341.346 97.3401C340.844 96.5067 340.537 95.5344 340.537 94.5066C340.537 93.5065 340.76 92.5064 340.955 91.5064C341.151 90.5341 341.346 89.534 341.151 88.5617C340.983 87.5894 340.314 86.7838 339.422 86.2838C338.529 85.7559 337.498 85.4226 336.55 84.9781C335.574 84.5336 334.626 83.8947 334.096 82.9224C333.566 81.9779 333.426 80.9223 333.371 79.95C333.343 78.9777 333.399 78.0054 333.399 77.0887C333.399 76.1719 333.315 75.283 333.008 74.5052C332.729 73.6996 332.227 73.0328 331.586 72.5606C330.275 71.6161 328.742 71.2827 327.403 70.9216C326.037 70.5882 324.754 70.1715 323.834 69.5048C322.858 68.8659 322.356 67.9492 322.133 67.1713C321.91 66.3935 322.022 65.7546 322.161 65.3656C322.328 64.9767 322.496 64.81 322.496 64.81C322.496 64.81 322.384 65.0045 322.245 65.3934C322.133 65.7823 322.077 66.3935 322.3 67.1158C322.551 67.838 323.053 68.6992 323.974 69.2826C324.894 69.8937 326.121 70.2826 327.487 70.5882C328.825 70.9216 330.415 71.2272 331.837 72.2272C332.534 72.7273 333.12 73.4773 333.426 74.3385C333.761 75.1997 333.845 76.1442 333.845 77.0887C333.873 78.0332 333.817 78.9777 333.845 79.95C333.901 80.8945 334.04 81.8668 334.514 82.7002C334.96 83.5336 335.825 84.0892 336.745 84.5336C337.665 84.9781 338.697 85.2837 339.673 85.8671C340.147 86.1449 340.593 86.506 340.955 86.9505C341.318 87.395 341.541 87.9228 341.652 88.4784C341.848 89.5618 341.625 90.6174 341.429 91.6175C341.234 92.6175 341.011 93.562 341.011 94.5066C341.011 95.4511 341.262 96.34 341.736 97.1179C342.628 98.6735 344.051 99.7847 345.445 100.618C346.867 101.451 348.289 102.063 349.516 102.757C350.771 103.452 351.83 104.202 352.611 105.035C353.392 105.868 353.922 106.702 354.201 107.452C354.507 108.202 354.563 108.813 354.563 109.23C354.591 109.452 354.563 109.591 354.535 109.702C354.535 109.813 354.535 109.869 354.507 109.869Z" fill="#303B3F"/>
<path d="M326.957 116.341C326.957 116.341 326.79 116.397 326.483 116.48C326.344 116.508 326.148 116.536 325.897 116.564C325.674 116.591 325.396 116.619 325.089 116.619C323.89 116.647 322.049 116.341 320.237 115.091C319.345 114.48 318.452 113.647 317.783 112.508C317.114 111.397 316.779 110.035 316.528 108.646C316.249 107.257 316.054 105.785 315.301 104.479C314.548 103.174 313.182 102.313 311.955 101.201C310.672 100.118 309.864 98.5346 309.641 96.9512C309.418 95.3677 309.752 93.7843 310.505 92.5342C311.23 91.2841 312.094 90.2563 312.485 89.0895C312.903 87.9228 312.959 86.756 312.903 85.7004C312.708 83.5891 312.094 81.9501 311.704 80.839C311.286 79.7 311.035 79.0888 311.091 79.0611C311.091 79.0611 311.174 79.1999 311.314 79.5055C311.453 79.7833 311.648 80.2 311.871 80.7556C312.318 81.8668 312.987 83.5058 313.238 85.6726C313.349 86.756 313.294 87.9783 312.875 89.2006C312.485 90.4507 311.593 91.5619 310.895 92.7564C310.198 93.951 309.892 95.3955 310.115 96.8956C310.338 98.3679 311.063 99.7847 312.29 100.84C313.461 101.924 314.911 102.813 315.719 104.257C316.5 105.646 316.723 107.174 316.974 108.563C317.197 109.952 317.504 111.258 318.145 112.313C318.731 113.397 319.595 114.202 320.432 114.814C322.161 116.036 323.918 116.397 325.089 116.425C326.288 116.453 326.957 116.286 326.957 116.341Z" fill="#303B3F"/>
<path d="M354.424 71.4216C354.424 71.4216 354.535 71.5327 354.563 71.8105C354.619 72.0883 354.563 72.5328 354.201 72.9495C353.866 73.3384 353.308 73.7551 352.528 73.8107C351.747 73.8107 350.938 73.4773 350.129 73.0884C349.293 72.6717 348.401 72.3106 347.369 72.2828C346.309 72.1995 345.194 72.3661 344.023 72.5884C342.852 72.7828 341.597 73.0606 340.258 73.0606C338.92 73.0884 337.414 72.6717 336.382 71.6439C335.323 70.6438 334.709 69.3659 334.151 68.1992C333.594 67.0324 333.064 65.8935 332.339 64.9767C330.945 63.0877 328.547 62.5599 326.874 63.0044C325.145 63.4211 324.113 64.5878 323.583 65.4212C323.053 66.2546 322.942 66.838 322.886 66.8102C322.886 66.8102 322.914 66.6713 322.97 66.4213C323.053 66.1435 323.165 65.7824 323.416 65.3101C323.918 64.4489 324.949 63.1711 326.79 62.6432C327.71 62.421 328.77 62.3932 329.829 62.7266C330.889 63.0322 331.921 63.7267 332.701 64.6989C333.454 65.6712 334.012 66.838 334.57 68.0047C335.155 69.1715 335.741 70.3938 336.717 71.2827C337.665 72.2272 338.976 72.5884 340.258 72.5884C341.513 72.5884 342.768 72.3384 343.939 72.1439C345.138 71.9217 346.281 71.7828 347.397 71.8661C348.484 71.9217 349.488 72.3384 350.269 72.7828C351.078 73.1995 351.83 73.5051 352.5 73.5329C353.197 73.5051 353.754 73.1718 354.061 72.8106C354.396 72.4773 354.507 72.0883 354.479 71.8383C354.452 71.5605 354.396 71.4494 354.424 71.4216Z" fill="#405C68"/>
<path d="M349.126 68.727C346.03 68.0047 343.66 64.9767 343.744 61.8098C343.828 58.643 346.337 55.7261 349.46 55.1705C350.966 54.8927 352.695 55.2261 353.615 56.4761C354.479 57.6429 354.424 59.393 355.511 60.3653C356.71 61.3654 358.523 60.9487 360.056 61.2542C362.427 61.7821 364.016 64.3656 363.737 66.7824C363.458 69.1715 361.618 71.2272 359.387 72.1439C357.129 73.0606 354.563 72.9495 352.221 72.2828C349.906 71.6161 347.759 70.3938 345.696 69.1159L349.126 68.727Z" fill="#303B3F"/>
<path d="M360.475 61.921C360.53 61.921 360.363 62.6432 359.777 63.6433C359.22 64.6434 358.132 65.8935 356.626 66.838C355.093 67.7825 353.503 68.1992 352.332 68.2547C351.161 68.3381 350.464 68.1714 350.464 68.1158C350.492 68.0325 351.189 68.088 352.304 67.9214C353.392 67.7547 354.898 67.3102 356.348 66.4213C357.798 65.5323 358.857 64.3656 359.499 63.4488C360.14 62.5321 360.419 61.8654 360.475 61.921Z" fill="#405C68"/>
<path d="M355.483 72.3383C355.344 72.4217 353.921 70.0326 350.994 68.3936C348.121 66.7268 345.305 66.6713 345.333 66.5324C345.333 66.4768 346.03 66.3935 347.145 66.5324C348.233 66.6991 349.767 67.1157 351.245 67.9769C352.722 68.8381 353.866 69.9215 354.563 70.7827C355.232 71.6716 355.539 72.3106 355.483 72.3383Z" fill="#E94D5C"/>
<path d="M286.775 174.623L271.522 171.679L274.283 175.568L267.73 178.818L262.264 176.29C262.264 176.29 262.655 177.485 263.854 179.457C265.053 181.457 266.642 183.04 267.674 183.124C269.236 183.235 269.514 183.263 267.674 183.124C267.674 183.124 268.009 184.985 269.71 186.763C270.713 187.846 273.363 189.541 276.597 188.68L286.859 184.985L286.775 174.623Z" fill="#F8C0A9"/>
<path d="M271.355 182.263C271.466 182.346 270.602 183.152 269.263 183.29C267.897 183.457 266.893 182.874 266.977 182.763C267.033 182.624 267.981 182.957 269.208 182.79C270.407 182.679 271.271 182.152 271.355 182.263Z" fill="#F39B70"/>
<path d="M273.362 185.513C273.446 185.596 272.805 186.346 271.661 186.624C270.518 186.93 269.598 186.596 269.626 186.485C269.654 186.346 270.518 186.43 271.522 186.152C272.554 185.902 273.251 185.402 273.362 185.513Z" fill="#F39B70"/>
<path d="M277.211 174.012C277.239 174.068 276.709 174.29 275.872 174.79C275.064 175.234 274.004 176.012 272.805 176.846C271.606 177.651 270.379 178.262 269.431 178.512C268.483 178.762 267.869 178.707 267.869 178.651C267.841 178.596 268.455 178.512 269.319 178.179C270.212 177.873 271.327 177.235 272.526 176.429C273.725 175.623 274.841 174.873 275.733 174.457C276.597 174.068 277.211 173.957 277.211 174.012Z" fill="#F39B70"/>
<path d="M369.928 199.903C369.928 199.903 370.458 200.236 371.74 202.542C375.728 209.626 377.345 226.627 362.315 241.795C342.852 261.379 320.098 293.465 320.098 293.465L302.224 368.748L275.203 362.914L289.118 284.659L327.292 214.126L369.928 199.903Z" fill="#4E35CB"/>
<path d="M399.709 345.635L358.104 282.214L345.5 227.46L313.377 243.184L329.467 298.771L380.886 362.581L399.709 345.635Z" fill="#4E35CB"/>
<path d="M302.223 368.748C302.195 368.748 302.223 368.637 302.279 368.387C302.335 368.109 302.419 367.748 302.502 367.303C302.725 366.331 303.032 364.942 303.45 363.164C304.287 359.553 305.486 354.358 306.964 347.969C310.003 335.107 314.186 317.411 318.787 297.854C319.149 296.326 319.512 294.798 319.847 293.409L319.874 293.354L319.902 293.298C331.698 278.269 342.433 264.991 350.325 255.546C354.284 250.823 357.519 247.073 359.805 244.517C360.949 243.239 361.869 242.267 362.455 241.6C362.761 241.295 362.984 241.045 363.18 240.878C363.319 240.711 363.403 240.628 363.43 240.628C363.43 240.628 363.347 240.711 363.207 240.906C363.04 241.1 362.817 241.35 362.538 241.683C361.953 242.35 361.06 243.322 359.945 244.628C357.686 247.212 354.507 251.017 350.576 255.768C342.74 265.241 332.06 278.575 320.293 293.604L320.321 293.52C319.986 294.909 319.623 296.437 319.261 297.965C314.604 317.494 310.366 335.19 307.298 348.052C305.765 354.414 304.51 359.608 303.618 363.192C303.171 364.97 302.837 366.359 302.614 367.331C302.474 367.776 302.391 368.137 302.335 368.387C302.251 368.637 302.223 368.748 302.223 368.748Z" fill="#D57432"/>
<path d="M350.994 219.932C350.994 219.96 350.771 220.099 350.352 220.293C349.906 220.488 349.237 220.71 348.4 220.904C346.755 221.293 344.273 221.46 341.736 220.71C339.171 219.988 337.191 218.543 335.992 217.321C335.406 216.709 334.96 216.154 334.709 215.737C334.43 215.348 334.319 215.126 334.346 215.098C334.402 215.043 335.016 215.932 336.243 217.071C337.47 218.182 339.421 219.543 341.875 220.238C344.329 220.96 346.699 220.876 348.345 220.571C349.99 220.265 350.966 219.849 350.994 219.932Z" fill="#D57432"/>
<path d="M373.943 203.097C357.658 211.654 331.251 216.737 322.802 213.293L322.523 182.068C322.523 182.068 310.923 163.039 310.895 155.872C310.84 145.51 323.778 121.87 323.778 121.87L343.214 116.758C347.787 116.73 351.468 117.786 354.452 119.342C361.925 123.314 366.024 131.648 365.187 140.037L360.279 171.095L373.943 203.097Z" fill="#FF151F"/>
<path d="M334.291 162.595C329.829 154.677 329.132 144.76 332.45 136.343C335.768 127.898 343.046 121.092 351.691 118.314L353.085 119.314C353.141 119.314 353.169 119.314 353.224 119.314C354.256 119.314 354.591 121.008 353.81 121.786C353.001 122.592 351.746 122.62 350.631 122.814C345.556 123.592 341.652 127.926 339.812 132.676C337.971 137.426 337.804 142.649 337.497 147.732C337.191 152.844 336.689 158.067 334.291 162.595Z" fill="#BF383D"/>
<path d="M354.452 119.342C354.452 119.342 351.663 114.758 342.266 116.758C336.02 118.092 322.328 131.176 326.149 152.233C329.969 173.29 340.202 180.735 340.202 180.735C340.202 180.735 330.777 148.51 336.02 134.454C341.234 120.397 354.452 119.342 354.452 119.342Z" fill="#303B3F"/>
<path d="M338.39 192.319C337.079 192.319 335.769 192.236 334.486 192.069C330.47 191.513 326.734 189.985 322.858 188.735C323.304 188.735 323.75 188.735 324.168 188.735C331.391 188.735 338.529 187.402 344.998 184.179C348.149 182.596 351.217 180.596 353.113 177.623C356.097 172.873 355.678 166.428 359.22 162.067C359.75 167.651 359.471 173.401 357.491 178.651C355.511 183.902 351.663 188.624 346.476 190.791C343.939 191.874 341.15 192.319 338.39 192.319Z" fill="#BF383D"/>
<path d="M334.514 156.816C334.514 156.816 333.259 180.54 362.287 175.818L365.215 182.679C365.215 182.679 334.681 189.096 330.359 163.9L334.514 156.816Z" fill="#303B3F"/>
<path d="M360.976 127.342C363.514 130.954 364.183 135.537 363.124 139.815L355.901 172.068C352.778 181.151 343.939 186.652 338.446 187.402L286.859 192.791V173.651L334.737 166.567L336.968 140.454C337.191 136.954 338.92 130.62 341.15 127.898C343.66 124.87 347.536 120.731 353.81 121.786C357.686 122.425 359.331 124.981 360.976 127.342Z" fill="#FF151F"/>
<path d="M362.482 141.065C362.482 141.065 362.482 141.315 362.426 141.815C362.371 142.288 362.287 142.982 362.148 143.871C361.925 145.677 361.534 148.26 360.976 151.483C360.391 154.677 359.638 158.455 358.69 162.65C358.188 164.734 357.686 166.928 357.045 169.178C356.431 171.429 355.65 173.762 354.535 175.984C353.42 178.235 351.942 180.235 350.157 181.818C348.4 183.402 346.448 184.624 344.497 185.541C340.537 187.374 336.633 188.069 333.398 188.402C330.164 188.735 327.515 188.763 325.702 188.791C324.81 188.763 324.113 188.763 323.611 188.763C323.109 188.763 322.858 188.735 322.858 188.735C322.858 188.708 323.109 188.68 323.583 188.68C324.113 188.652 324.81 188.624 325.702 188.596C327.515 188.513 330.136 188.43 333.37 188.069C336.577 187.68 340.425 186.957 344.301 185.124C346.225 184.235 348.122 183.013 349.85 181.457C351.551 179.901 353.001 177.957 354.089 175.762C355.204 173.568 355.957 171.29 356.599 169.039C357.212 166.817 357.742 164.623 358.244 162.539C359.22 158.372 360 154.594 360.614 151.399C361.227 148.232 361.674 145.649 361.98 143.843C362.12 142.982 362.231 142.315 362.315 141.788C362.399 141.315 362.454 141.065 362.482 141.065Z" fill="#303B3F"/>
<path d="M336.131 172.067C335.992 172.123 335.49 170.873 334.96 169.29C334.458 167.706 334.151 166.373 334.263 166.345C334.402 166.289 334.932 167.539 335.434 169.123C335.936 170.706 336.243 172.04 336.131 172.067Z" fill="#303B3F"/>
<path d="M339.059 171.345C338.975 171.429 337.693 170.651 336.438 169.29C335.155 167.956 334.402 166.65 334.514 166.567C334.625 166.484 335.546 167.651 336.772 168.956C338.027 170.262 339.143 171.234 339.059 171.345Z" fill="#303B3F"/>
<path d="M291.348 172.984C291.348 172.984 291.432 172.956 291.571 172.929C291.739 172.901 291.962 172.873 292.213 172.818C292.798 172.706 293.635 172.595 294.694 172.401C296.869 172.067 299.992 171.567 303.868 170.984C311.676 169.79 322.495 168.178 334.709 166.317L334.486 166.539C334.653 164.761 334.848 162.872 335.016 160.983C335.657 154.205 336.298 147.76 336.633 141.871C336.856 138.899 337.414 136.121 338.223 133.593C339.031 131.092 340.091 128.814 341.597 127.092C344.664 123.786 348.066 122.036 350.575 121.703C351.83 121.536 352.834 121.647 353.476 121.758C353.81 121.842 354.061 121.897 354.201 121.953C354.368 122.008 354.451 122.036 354.451 122.036C354.451 122.12 353.085 121.508 350.631 121.897C348.177 122.258 344.831 124.036 341.848 127.342C340.425 129.009 339.394 131.259 338.613 133.731C337.832 136.204 337.302 138.982 337.079 141.899C336.773 147.788 336.131 154.233 335.518 161.011C335.322 162.928 335.155 164.817 334.988 166.595L334.96 166.789L334.765 166.817C322.551 168.595 311.732 170.151 303.896 171.29C300.02 171.845 296.897 172.29 294.722 172.595C293.663 172.734 292.826 172.818 292.213 172.901C291.962 172.929 291.739 172.956 291.571 172.984C291.432 172.984 291.348 173.012 291.348 172.984Z" fill="#303B3F"/>
<path d="M320.878 188.624C320.739 188.624 320.181 184.291 319.651 178.929C319.121 173.54 318.787 169.178 318.926 169.178C319.066 169.151 319.595 173.484 320.153 178.874C320.683 184.235 321.018 188.596 320.878 188.624Z" fill="#FCFBFB"/>
<path d="M358.606 159.511C358.606 159.567 357.38 159.594 355.344 159.539C353.308 159.511 350.52 159.456 347.425 159.317C344.357 159.205 341.541 159.094 339.533 158.955C337.498 158.844 336.271 158.733 336.271 158.678C336.271 158.594 337.526 158.594 339.533 158.622C341.569 158.65 344.357 158.733 347.453 158.844C350.548 158.955 353.336 159.094 355.344 159.205C357.38 159.317 358.606 159.428 358.606 159.511Z" fill="#FCFBFB"/>
<path d="M325.898 153.4C325.898 153.455 325.089 153.594 323.751 153.677C322.412 153.761 320.572 153.844 318.564 153.788C316.528 153.761 314.688 153.622 313.378 153.483C312.039 153.316 311.23 153.177 311.258 153.122C311.258 153.038 312.067 153.066 313.405 153.122C314.716 153.177 316.556 153.261 318.564 153.316C320.572 153.344 322.412 153.344 323.723 153.344C325.061 153.316 325.87 153.316 325.898 153.4Z" fill="#FCFBFB"/>
<path d="M330.136 131.092C330.08 131.204 328.1 130.176 325.535 129.203C322.969 128.231 320.794 127.703 320.822 127.564C320.822 127.426 323.081 127.759 325.702 128.759C328.323 129.731 330.219 130.981 330.136 131.092Z" fill="#FCFBFB"/>
<path d="M367.585 189.708C367.613 189.708 367.446 189.791 367.167 189.902C366.833 190.041 366.442 190.208 365.94 190.43C364.853 190.847 363.263 191.458 361.311 192.124C357.352 193.513 351.831 195.18 345.612 196.597C339.394 198.014 333.705 198.903 329.551 199.375C327.459 199.597 325.786 199.764 324.615 199.847C324.085 199.875 323.639 199.903 323.277 199.931C322.97 199.931 322.802 199.931 322.802 199.903C322.802 199.903 322.97 199.875 323.277 199.819C323.639 199.764 324.085 199.708 324.615 199.653C325.758 199.514 327.431 199.319 329.495 199.042C333.622 198.486 339.31 197.541 345.501 196.125C351.691 194.708 357.24 193.097 361.2 191.791C363.18 191.152 364.769 190.624 365.857 190.235C366.386 190.069 366.805 189.93 367.139 189.819C367.446 189.735 367.585 189.68 367.585 189.708Z" fill="#FCFBFB"/>
<path d="M364.518 133.509C364.518 133.648 358.969 133.593 352.109 133.37C345.25 133.148 339.7 132.843 339.7 132.731C339.7 132.593 345.277 132.648 352.137 132.87C358.969 133.093 364.518 133.398 364.518 133.509Z" fill="#FCFBFB"/>
<path d="M298.096 191.402C297.957 191.402 297.678 187.207 297.483 182.04C297.288 176.846 297.232 172.651 297.371 172.651C297.483 172.651 297.762 176.846 297.957 182.013C298.152 187.207 298.208 191.402 298.096 191.402Z" fill="#FCFBFB"/>
<path d="M192.608 95.3399C200.918 93.7843 209.702 94.6732 217.537 97.9235C221.051 99.3958 224.508 101.451 226.405 104.729C228.635 108.591 228.273 113.369 228.022 117.841C227.548 126.898 227.855 136.037 228.97 145.066C229.918 152.566 231.396 160.039 231.396 167.623C231.368 175.179 229.667 183.04 224.899 188.93C217.537 198.042 204.459 200.569 192.859 199.042C186.752 198.236 180.646 196.403 175.654 192.791C170.663 189.152 166.926 183.568 166.508 177.429L192.608 95.3399Z" fill="#FF151F"/>
<path d="M207.136 106.869C207.053 106.924 208.559 108.23 209.897 111.063C210.566 112.452 211.18 114.202 211.765 116.175C212.351 118.175 212.936 120.397 213.94 122.62C214.944 124.814 216.31 126.787 218.011 128.092C219.685 129.453 221.664 130.009 223.254 129.953C224.899 129.953 226.154 129.426 226.879 128.926C227.269 128.676 227.52 128.426 227.66 128.259C227.827 128.092 227.911 127.981 227.883 127.981C227.855 127.926 227.52 128.287 226.767 128.703C226.014 129.148 224.815 129.565 223.282 129.537C221.748 129.509 219.936 128.953 218.374 127.648C216.785 126.37 215.474 124.509 214.498 122.342C213.55 120.203 212.936 118.008 212.295 116.008C211.682 114.036 211.012 112.258 210.287 110.869C209.562 109.452 208.782 108.424 208.168 107.757C207.555 107.119 207.164 106.841 207.136 106.869Z" fill="#303B3F"/>
<path d="M210.455 198.458C210.482 198.458 210.538 198.208 210.594 197.708C210.678 197.153 210.761 196.458 210.901 195.569C211.124 193.736 211.431 191.041 211.793 187.707C212.49 181.04 213.355 171.845 214.08 161.65C214.805 151.455 215.251 142.232 215.502 135.537C215.641 132.204 215.697 129.481 215.725 127.62C215.753 126.731 215.753 126.009 215.753 125.453C215.753 124.981 215.753 124.703 215.725 124.703C215.697 124.703 215.669 124.953 215.641 125.453C215.585 126.009 215.558 126.731 215.502 127.62C215.39 129.565 215.251 132.231 215.056 135.509C214.721 142.204 214.191 151.427 213.466 161.622C212.741 171.79 211.96 180.985 211.347 187.652C211.068 190.93 210.817 193.597 210.65 195.541C210.594 196.43 210.538 197.153 210.482 197.708C210.455 198.18 210.455 198.458 210.455 198.458Z" fill="#303B3F"/>
<path d="M214.191 157.65C214.163 157.817 217.816 158.344 222.389 158.455C226.934 158.567 230.615 158.261 230.615 158.094C230.587 157.9 226.934 157.955 222.389 157.817C217.872 157.705 214.191 157.483 214.191 157.65Z" fill="#303B3F"/>
<path d="M217.147 158.011C217.091 157.983 216.756 158.594 216.394 159.678C216.227 160.206 216.031 160.844 215.892 161.595C215.836 161.956 215.78 162.4 215.92 162.872C216.059 163.345 216.45 163.789 217.035 163.872C217.314 163.928 217.649 163.845 217.872 163.65C218.095 163.456 218.206 163.178 218.262 162.956C218.374 162.483 218.29 162.067 218.262 161.706C218.206 160.956 218.039 160.317 217.9 159.761C217.593 158.678 217.23 158.067 217.147 158.094C217.063 158.122 217.258 158.789 217.481 159.872C217.565 160.4 217.649 161.039 217.704 161.761C217.704 162.122 217.732 162.483 217.677 162.817C217.593 163.122 217.398 163.317 217.119 163.261C216.477 163.15 216.338 162.372 216.477 161.678C216.561 160.983 216.701 160.317 216.812 159.789C217.063 158.705 217.23 158.039 217.147 158.011Z" fill="#303B3F"/>
<path d="M183.992 97.6179L223.421 98.9235C228.44 99.0624 232.623 95.1733 232.762 90.2007L233.013 82.5613C233.181 77.5887 229.277 73.4218 224.285 73.2551L184.828 71.9494C179.837 71.7828 175.654 75.6997 175.487 80.6723L175.236 88.3117C175.069 93.2842 179.001 97.4512 183.992 97.6179Z" fill="#8E2F30"/>
<path d="M223.337 73.7551C223.365 73.7273 223.254 73.644 223.003 73.5329C222.78 73.4218 222.389 73.2829 221.915 73.1995C220.911 73.0329 219.378 73.1162 217.761 73.9774C216.227 74.8108 214.359 76.0608 213.104 78.1165C211.793 80.1167 211.096 82.7002 210.901 85.3948C210.65 88.1172 211.235 90.7841 212.407 92.8676C213.55 94.951 215.279 96.3956 216.868 97.2012C218.486 98.0068 219.963 98.2568 220.939 98.2846C221.441 98.2846 221.832 98.2568 222.083 98.229C222.361 98.1735 222.473 98.1457 222.473 98.1179C222.473 98.0624 221.915 98.1179 220.967 98.0346C219.991 97.9512 218.597 97.6457 217.091 96.8123C215.558 96.0067 213.968 94.5899 212.909 92.5898C211.821 90.5896 211.263 88.0617 211.514 85.4504C211.71 82.8113 212.379 80.3389 213.578 78.4221C214.749 76.4498 216.506 75.2274 217.984 74.3663C219.461 73.4773 220.911 73.3384 221.86 73.4495C222.836 73.5329 223.337 73.8107 223.337 73.7551Z" fill="#FF151F"/>
<path d="M201.141 72.3939L207.136 72.6995C205.491 72.894 204.013 73.8107 202.898 75.033C201.81 76.2831 201.085 77.7832 200.583 79.3666C198.52 85.9782 201.029 93.8121 206.3 98.3402L201.448 98.2568C201.448 98.2568 189.624 84.0614 201.141 72.3939Z" fill="#FF151F"/>
<path d="M171.834 61.1431C169.38 55.2538 169.241 44.9753 173.005 39.5861C176.742 34.169 183.741 30.6132 190.182 29.2242C191.27 29.002 192.441 28.8631 193.445 29.2798C194.449 29.6965 195.202 30.9188 194.783 31.9189C196.066 31.1133 197.405 30.3076 198.882 29.9465C200.36 29.6132 202.089 29.8354 203.177 30.891C204.264 31.9466 204.432 33.9468 203.288 34.9469C205.073 34.2801 207.248 34.808 208.559 36.1692C209.869 37.5581 210.259 39.7527 209.507 41.5029C208.782 43.1696 207.248 45.0587 205.909 46.281C204.571 47.5033 204.348 48.7812 204.571 50.6146L171.834 61.1431Z" fill="#303B3F"/>
<path d="M173.368 50.3091L171.667 86.4505C171.388 92.6175 176.324 97.7568 182.486 97.729C188.258 97.7012 192.999 93.2009 193.25 87.4505C193.389 84.7281 193.501 82.4502 193.528 82.1724C193.528 82.1724 202.786 81.7557 203.902 72.6717C204.431 68.2825 204.766 59.1708 204.989 50.9202C205.24 42.0585 198.604 34.5024 189.736 33.5301L188.872 33.4468C179.307 32.9745 173.591 40.8084 173.368 50.3091Z" fill="#F8C0A9"/>
<path d="M193.557 82.0613C193.557 82.0613 187.729 81.8946 182.012 77.4221C182.012 77.4221 183.853 83.0891 193.027 83.2558L193.557 82.0613Z" fill="#F39B70"/>
<path d="M201.671 56.7262C201.643 57.3929 201.001 57.9207 200.276 57.8929C199.579 57.8651 199.022 57.254 199.077 56.5873C199.133 55.8928 199.747 55.365 200.472 55.3927C201.197 55.4483 201.726 56.0317 201.671 56.7262Z" fill="#303B3F"/>
<path d="M202.563 55.1705C202.368 55.3094 201.476 54.476 200.081 54.3371C198.659 54.1704 197.572 54.7816 197.432 54.5871C197.349 54.5038 197.572 54.226 198.046 53.9482C198.52 53.6704 199.301 53.4204 200.165 53.5315C201.057 53.6148 201.754 54.0315 202.145 54.3927C202.535 54.7816 202.647 55.0871 202.563 55.1705Z" fill="#303B3F"/>
<path d="M187.896 55.7261C187.84 56.3928 187.198 56.9206 186.473 56.8928C185.776 56.8373 185.219 56.2539 185.274 55.5594C185.33 54.8927 185.944 54.3649 186.669 54.3927C187.394 54.4482 187.923 55.0316 187.896 55.7261Z" fill="#303B3F"/>
<path d="M188.76 53.9482C188.565 54.0871 187.672 53.2537 186.25 53.1148C184.856 52.9481 183.769 53.5593 183.629 53.3648C183.545 53.2815 183.741 53.0037 184.243 52.7259C184.717 52.4481 185.497 52.2258 186.362 52.3092C187.254 52.4203 187.951 52.8092 188.342 53.1704C188.732 53.5593 188.844 53.8648 188.76 53.9482Z" fill="#303B3F"/>
<path d="M192.719 64.8378C192.719 64.7545 193.612 64.6989 195.034 64.6711C195.396 64.6711 195.759 64.6434 195.843 64.4211C195.954 64.1711 195.843 63.7544 195.703 63.3377C195.452 62.421 195.201 61.4765 194.95 60.5042C193.891 56.4761 193.166 53.1981 193.333 53.1426C193.5 53.1148 194.476 56.3372 195.536 60.3653C195.787 61.3376 196.038 62.2821 196.261 63.1988C196.345 63.6155 196.54 64.0878 196.289 64.6156C196.149 64.8656 195.87 65.0323 195.647 65.0601C195.396 65.1156 195.201 65.0878 195.034 65.0878C193.584 65.0045 192.719 64.9212 192.719 64.8378Z" fill="#303B3F"/>
<path d="M188.481 65.3656C188.704 65.3934 188.565 66.8935 189.736 68.1158C190.935 69.3381 192.552 69.3381 192.552 69.5604C192.552 69.6437 192.162 69.8104 191.465 69.7548C190.796 69.6993 189.848 69.3937 189.123 68.6437C188.398 67.8936 188.147 66.9769 188.174 66.3379C188.174 65.699 188.398 65.3379 188.481 65.3656Z" fill="#303B3F"/>
<path d="M189.708 48.5034C189.513 48.8645 188.147 48.5311 186.473 48.5589C184.8 48.5589 183.434 48.8923 183.267 48.5311C183.183 48.3645 183.434 48.0311 184.02 47.6978C184.605 47.3922 185.47 47.1422 186.473 47.1422C187.477 47.1422 188.37 47.3922 188.927 47.6978C189.513 48.0033 189.792 48.3367 189.708 48.5034Z" fill="#303B3F"/>
<path d="M202.479 51.0591C202.2 51.3647 201.28 50.9202 200.109 50.7813C198.966 50.6146 197.934 50.7813 197.739 50.4202C197.683 50.2257 197.85 49.9479 198.324 49.6979C198.771 49.4201 199.523 49.2534 200.304 49.3645C201.113 49.4757 201.754 49.8368 202.117 50.2257C202.507 50.5869 202.619 50.9202 202.479 51.0591Z" fill="#303B3F"/>
<path d="M173.395 57.1151C173.256 57.0317 167.317 54.6149 166.843 60.8376C166.368 67.088 172.754 66.2546 172.782 66.0879C172.81 65.8935 173.395 57.1151 173.395 57.1151Z" fill="#F8C0A9"/>
<path d="M171.053 63.5878C171.025 63.56 170.941 63.6433 170.746 63.7267C170.551 63.7822 170.244 63.81 169.938 63.6711C169.296 63.3933 168.794 62.2821 168.85 61.1709C168.878 60.5876 169.045 60.0597 169.296 59.643C169.519 59.1986 169.826 58.893 170.161 58.8652C170.495 58.8096 170.718 59.0319 170.802 59.1986C170.858 59.393 170.802 59.5041 170.83 59.5319C170.858 59.5319 170.997 59.4208 170.941 59.1708C170.941 59.0319 170.886 58.893 170.746 58.7541C170.607 58.6152 170.384 58.5596 170.161 58.5596C169.659 58.5596 169.185 58.9485 168.934 59.4486C168.655 59.9208 168.46 60.5042 168.432 61.1431C168.376 62.3932 168.934 63.6155 169.798 63.9489C170.244 64.1156 170.607 64.0045 170.83 63.8656C171.025 63.7267 171.081 63.5878 171.053 63.5878Z" fill="#F39B70"/>
<path d="M209.897 39.4472C210.008 47.5866 199.746 50.1979 195.703 45.3642C193.835 43.1141 192.273 40.3639 189.596 39.1971C187.784 38.4471 185.665 38.6138 183.852 39.3638L183.796 39.3916C181.119 40.5306 179.363 43.3919 178.749 46.2254C177.885 50.1701 178.247 53.7537 176.937 57.3373C176.741 57.8651 176.518 58.4207 176.044 58.6985C175.236 59.1985 174.176 58.6152 173.618 57.8929C172.698 56.6984 172.475 55.1427 172.364 53.6426C172.113 50.2535 172.419 46.8088 173.507 43.5863C174.622 40.3639 176.546 37.3915 179.251 35.308C182.653 32.7245 187.115 31.6689 191.353 32.1967C195.564 32.7245 199.551 34.7524 202.674 37.6693C204.124 39.0027 205.407 40.5861 206.021 42.4752L209.897 39.4472Z" fill="#303B3F"/>
<path d="M203.623 34.5024C203.623 34.4746 203.93 34.4468 204.459 34.6135C205.017 34.7524 205.77 35.1413 206.439 35.9191C207.108 36.6692 207.694 37.8082 207.778 39.1694C207.833 40.5306 207.248 42.0029 206.244 43.1974C205.24 44.3642 203.93 45.1698 202.675 45.5587C201.392 45.9754 200.193 46.0587 199.189 46.0587C198.185 46.031 197.404 45.9198 196.847 45.8087C196.317 45.6976 196.01 45.5865 196.038 45.5587C196.038 45.4754 197.237 45.7532 199.189 45.7254C200.165 45.6698 201.308 45.5587 202.535 45.142C203.734 44.7253 204.933 43.9753 205.881 42.8641C206.83 41.7807 207.359 40.4195 207.331 39.1694C207.304 37.9471 206.774 36.8637 206.188 36.1414C205.603 35.3913 204.906 34.9746 204.404 34.7802C203.902 34.5857 203.595 34.5579 203.623 34.5024Z" fill="#405C68"/>
<path d="M199.635 31.3355C199.635 31.3077 199.886 31.2799 200.221 31.4744C200.583 31.6689 201.002 32.1689 201.113 32.8912C201.225 33.6134 200.918 34.4746 200.444 35.2247C199.97 36.0025 199.328 36.8081 198.548 37.5026C196.986 38.8916 195.174 39.6694 193.863 39.975C192.525 40.3083 191.66 40.225 191.66 40.1694C191.66 40.0861 192.497 40.0583 193.752 39.6416C195.034 39.2805 196.735 38.4749 198.213 37.1415C198.966 36.4747 199.579 35.7247 200.081 35.0024C200.555 34.2801 200.806 33.5579 200.778 32.9189C200.723 32.3078 200.388 31.8633 200.137 31.6411C199.858 31.4188 199.635 31.3633 199.635 31.3355Z" fill="#405C68"/>
<path d="M173.117 120.092L176.073 98.7291L133.911 107.146L95.5691 93.9232L85.2239 104.507L126.019 125.453C129.672 127.175 133.771 127.703 137.731 126.953L173.117 120.092Z" fill="#F8C0A9"/>
<path d="M95.5691 93.9232C95.5691 93.9232 80.9017 86.9227 79.9815 86.7005C79.2565 86.506 68.1583 85.9226 63.1391 85.6726C61.1314 85.5615 60.8246 88.5339 62.8044 88.7839L62.9996 88.8117C65.816 89.034 72.0064 90.4507 72.0064 90.4507L69.1901 97.0345C68.9112 97.7012 69.1343 98.4791 69.7199 98.9235L78.2526 105.202C80.5392 106.23 83.1882 105.98 85.2238 104.507L88.9604 105.285L95.5691 93.9232Z" fill="#F8C0A9"/>
<path d="M69.1624 97.3957C69.4412 98.6457 72.3691 101.146 74.5999 101.146C75.1018 101.146 75.6037 101.007 75.9384 100.674C76.3009 100.313 76.4682 99.7847 76.273 99.3402C76.1336 99.0347 75.8547 98.8402 75.6037 98.6457C73.9585 97.3401 72.2855 96.0622 70.6124 94.7844L69.1624 97.3957Z" fill="#F8C0A9"/>
<path d="M70.6121 94.7844C70.6679 94.7288 71.4486 95.2566 72.7035 96.1733C73.3727 96.6734 74.0977 97.2012 74.8785 97.7846C75.2967 98.1179 75.715 98.3957 76.1612 98.7846C76.3842 99.0069 76.5794 99.3402 76.5794 99.7014C76.6073 100.062 76.4679 100.396 76.2727 100.674C75.8265 101.229 75.1015 101.396 74.516 101.368C73.9304 101.368 73.3727 101.201 72.8986 100.979C71.9227 100.563 71.1419 100.007 70.5563 99.4791C69.9707 98.9513 69.5804 98.4513 69.3573 98.0624C69.1342 97.6734 69.1342 97.3956 69.1621 97.3956C69.19 97.3956 69.2736 97.6179 69.5246 97.9512C69.7755 98.2846 70.1938 98.7569 70.7794 99.2291C71.365 99.7014 72.1458 100.201 73.066 100.563C73.5121 100.757 74.014 100.896 74.5438 100.896C75.0458 100.924 75.5756 100.757 75.8823 100.368C76.1891 99.9792 76.1891 99.4513 75.8265 99.1458C75.464 98.7846 74.99 98.4513 74.5996 98.1457C73.8467 97.5345 73.1496 96.9512 72.4804 96.4511C71.3092 95.4511 70.5842 94.8399 70.6121 94.7844Z" fill="#F39B70"/>
<path d="M81.0131 101.201C80.9573 101.229 80.6785 101.035 80.3717 100.563C80.065 100.09 79.7583 99.3402 79.7304 98.4791C79.7025 97.6179 79.9256 96.8678 80.1765 96.3678C80.4275 95.8678 80.7064 95.6455 80.7621 95.6733C80.8737 95.7566 80.1208 96.8956 80.2323 98.4791C80.2602 100.062 81.1246 101.118 81.0131 101.201Z" fill="#F39B70"/>
<path d="M75.1572 97.8123C75.5755 98.5068 76.5236 98.868 77.3044 98.6179C78.0851 98.3957 78.6707 97.6179 78.6707 96.7845C78.6986 95.7289 77.8342 94.8677 77.0255 94.1454C75.7986 93.062 74.5717 91.9508 73.3447 90.8396L75.1572 97.8123Z" fill="#F8C0A9"/>
<path d="M73.3451 90.8396C73.4009 90.8119 73.9864 91.2563 74.8788 92.0064C75.3807 92.4231 75.9105 92.8676 76.4682 93.3398C77.0538 93.8676 77.7509 94.3954 78.3086 95.1455C78.6153 95.5344 78.8384 95.9789 78.8942 96.4511C78.9778 96.9234 78.8663 97.3957 78.6432 97.7846C78.2249 98.5346 77.4163 98.9235 76.7749 98.868C76.1057 98.8402 75.6595 98.5346 75.4086 98.2846C75.1855 98.0346 75.1297 97.8401 75.1576 97.8123C75.1855 97.8123 75.297 97.9512 75.548 98.1457C75.799 98.3124 76.2172 98.5346 76.7749 98.5346C77.3047 98.5346 77.9182 98.2013 78.2528 97.5623C78.5874 96.9512 78.448 96.1178 77.9182 95.4511C77.4163 94.7566 76.7192 94.2288 76.1615 93.6732C75.6317 93.1731 75.1297 92.7009 74.6557 92.2564C73.8191 91.423 73.3172 90.8952 73.3451 90.8396Z" fill="#F39B70"/>
<path d="M81.4314 90.284C78.4756 91.0063 75.6314 92.173 73.066 93.7843C72.8987 93.8676 72.7314 93.9787 72.7035 94.1732C72.6198 94.3954 72.815 94.6454 73.0102 94.8121C73.7631 95.3955 74.8227 95.5066 75.7708 95.4233C76.7468 95.3399 77.6949 95.1177 78.6708 95.1455C80.3439 95.1733 81.9055 95.9789 83.5228 96.4233C85.1401 96.8678 87.0921 96.84 88.2074 95.59L81.4314 90.284Z" fill="#F8C0A9"/>
<path d="M88.2075 95.59C88.2075 95.6178 88.1796 95.6733 88.0402 95.8122C87.9287 95.9511 87.7335 96.1456 87.4546 96.3122C86.869 96.6734 85.8652 96.9234 84.6383 96.8123C83.4113 96.7289 82.0729 96.1178 80.595 95.7011C79.8421 95.4789 79.0613 95.34 78.2526 95.3677C77.4161 95.4233 76.5517 95.6178 75.6036 95.6733C74.6834 95.7289 73.6795 95.6178 72.9266 95.0344C72.7314 94.8955 72.5362 94.7288 72.4526 94.4232C72.4247 94.2565 72.4526 94.0621 72.5362 93.951C72.6199 93.8121 72.7314 93.7287 72.8151 93.6454C73.2055 93.4232 73.5401 93.2287 73.8747 93.0342C75.269 92.2564 76.5795 91.7008 77.6949 91.2841C78.8103 90.8674 79.7584 90.6174 80.3998 90.4507C81.0411 90.3118 81.4315 90.2563 81.4315 90.284C81.4594 90.3674 80.0094 90.7007 77.8065 91.5897C76.719 92.0342 75.4363 92.6453 74.0978 93.4232C73.7632 93.6176 73.4286 93.8398 73.0939 94.0343C72.9266 94.1454 72.8988 94.2288 72.9266 94.3121C72.9545 94.4232 73.0661 94.5621 73.2055 94.6732C73.8468 95.1177 74.7113 95.2566 75.5757 95.2011C76.468 95.1455 77.3324 94.951 78.2248 94.8955C79.1171 94.8677 79.9536 95.0344 80.7065 95.2566C82.2402 95.7289 83.5229 96.34 84.6661 96.4511C85.8373 96.6178 86.7854 96.4234 87.3431 96.1456C87.9287 95.8678 88.1796 95.5622 88.2075 95.59Z" fill="#F39B70"/>
<path d="M134.58 114.536C134.44 114.591 133.938 112.924 133.883 110.785C133.827 108.646 134.217 106.952 134.357 106.98C134.496 107.007 134.329 108.702 134.385 110.758C134.44 112.841 134.719 114.508 134.58 114.536Z" fill="#F39B70"/>
<path d="M171.444 88.8117L159.481 102.229C159.481 102.229 153.095 148.594 152.649 152.233C152.175 155.872 150.976 167.512 150.976 170.706C150.976 173.873 148.327 196.653 148.327 196.653C148.327 196.653 199.077 207.153 207.554 196.653L204.905 177.151L207.22 128.814C207.22 128.814 211.012 95.2566 193.25 87.4505C193.25 87.4505 182.012 94.201 171.444 88.8117Z" fill="#4E35CB"/>
<path d="M201.392 92.2009C201.392 92.2009 197.906 88.7562 186.724 91.6453C174.957 94.701 168.739 105.674 171.667 136.76C174.065 162.4 184.243 166.095 184.243 166.095C184.243 166.095 178.666 127.426 179.642 111.23C180.841 90.8119 201.392 95.8956 201.392 95.8956C204.32 94.951 201.392 92.2009 201.392 92.2009Z" fill="#303B3F"/>
<path d="M171.443 88.8117L161.098 91.6452L137.87 105.841L144.479 126.787L158.142 125.286L171.443 88.8117Z" fill="#4E35CB"/>
<path d="M158.003 103.368C158.142 103.368 157.529 110.869 156.692 120.092C155.828 129.315 155.019 136.787 154.88 136.759C154.74 136.759 155.326 129.259 156.19 120.036C157.055 110.813 157.864 103.34 158.003 103.368Z" fill="#D57432"/>
<path d="M205.324 168.456C205.324 168.456 202.033 179.04 190.35 161.595C178.694 144.121 180.339 151.927 180.339 151.927L177.941 154.761C177.941 154.761 190.768 183.568 205.184 179.04L205.324 168.456Z" fill="#303B3F"/>
<path d="M148.327 126.37L157.306 108.841C156.999 111.786 156.609 115.73 156.191 120.036C156.023 121.981 155.856 123.842 155.689 125.564L148.327 126.37Z" fill="#4E35CB"/>
<path d="M155.689 125.564C155.856 123.842 156.023 121.981 156.191 120.036C156.609 115.73 156.999 111.786 157.306 108.841L157.529 108.396L155.94 125.537L155.689 125.564Z" fill="#D57432"/>
<path d="M187.31 177.373C183.713 177.373 180.172 175.846 176.937 174.179C168.07 169.567 160.039 163.428 153.319 156.094L153.486 153.983C159.425 159.15 165.616 164.428 173.702 165.734C174.706 165.9 175.738 165.984 176.77 165.984C178.722 165.984 180.674 165.678 182.486 165.011C183.546 165.845 184.243 166.095 184.243 166.095C184.243 166.095 184.243 166.012 184.215 165.873C186.669 169.484 189.68 173.262 193.082 175.901C191.772 176.596 190.378 177.096 188.872 177.262C188.37 177.346 187.84 177.373 187.31 177.373Z" fill="#4E35CB"/>
<path d="M184.243 166.095C184.243 166.095 183.546 165.845 182.486 165.011C182.793 164.9 183.1 164.761 183.406 164.623C183.657 165.039 183.936 165.456 184.215 165.873C184.243 166.012 184.243 166.095 184.243 166.095Z" fill="#2A2F30"/>
<path d="M198.687 170.734C196.568 169.484 193.835 166.762 190.349 161.595C189.959 160.983 189.569 160.4 189.206 159.872C193.528 153.677 193.026 144.593 197.07 137.954C198.046 136.343 199.468 134.787 201.336 134.537C201.503 134.509 201.671 134.482 201.866 134.482C203.678 134.482 205.965 135.565 205.965 135.565C204.069 136.148 202.758 137.898 202.758 139.871C202.758 140.76 202.758 141.704 202.702 142.51C202.451 147.094 202.423 153.788 201.866 158.789C201.364 163.345 201.671 165.289 199.523 169.345C199.245 169.817 198.994 170.29 198.687 170.734Z" fill="#4E35CB"/>
<path d="M193.082 175.901C189.68 173.262 186.669 169.484 184.215 165.873C183.936 165.456 183.657 165.039 183.406 164.623C183.685 164.511 183.992 164.345 184.299 164.206C186.418 163.039 188.007 161.567 189.206 159.872C189.569 160.4 189.959 160.983 190.35 161.595C193.835 166.762 196.568 169.484 198.687 170.734C197.265 172.873 195.341 174.707 193.082 175.901Z" fill="#2A2F30"/>
<path d="M168.934 125.092C168.934 132.509 166.954 138.51 164.473 138.51C161.991 138.51 159.983 132.509 159.983 125.092C159.983 117.675 161.991 111.674 164.473 111.674C166.954 111.674 168.934 117.675 168.934 125.092Z" fill="#FCFBFB"/>
<path d="M166.871 358.386L167.902 380.471C167.902 380.471 145.706 388.944 145.483 393.027L188.537 392.583L188.37 358.108L166.871 358.386Z" fill="#E94D5C"/>
<path d="M180.785 381.749C180.673 381.749 180.562 381.749 180.45 381.721C179.614 381.499 178.889 380.415 179.168 379.61C179.363 378.943 180.144 378.415 180.813 378.415C181.008 378.415 181.175 378.443 181.343 378.526C182.096 378.832 182.597 379.693 182.43 380.471C182.263 381.193 181.538 381.749 180.785 381.749Z" fill="#F6BFC8"/>
<path d="M145.483 392.833C145.455 391.972 146.319 391.333 146.821 391.027C146.096 391.666 145.65 392.277 145.511 392.833H145.483Z" fill="#FEFEFE"/>
<path d="M145.483 393.027C145.483 392.972 145.483 392.888 145.483 392.833H145.511C145.511 392.888 145.483 392.972 145.483 393.027L166.703 392.805L145.483 393.027Z" fill="#B1B6B7"/>
<path d="M145.483 393.027C145.483 392.972 145.511 392.888 145.511 392.833C145.65 392.277 146.096 391.666 146.821 391.027C147.017 390.916 147.184 390.833 147.184 390.833L188.537 389.166V392.583L166.703 392.805L145.483 393.027Z" fill="#F6BFC8"/>
<path d="M167.177 380.276C167.205 380.471 168.265 380.554 169.297 381.221C170.356 381.86 170.886 382.777 171.081 382.665C171.277 382.638 170.942 381.388 169.687 380.61C168.404 379.804 167.15 380.082 167.177 380.276Z" fill="#303B3F"/>
<path d="M162.688 382.165C162.66 382.388 163.552 382.721 164.277 383.61C165.03 384.471 165.225 385.416 165.421 385.416C165.644 385.443 165.755 384.221 164.835 383.138C163.943 382.054 162.688 381.971 162.688 382.165Z" fill="#303B3F"/>
<path d="M160.178 387.582C160.373 387.638 160.652 386.582 160.094 385.443C159.564 384.304 158.561 383.86 158.477 384.027C158.365 384.193 159.007 384.805 159.453 385.749C159.899 386.694 159.983 387.582 160.178 387.582Z" fill="#303B3F"/>
<path d="M167.512 375.22C167.596 375.415 168.572 375.109 169.771 375.165C170.942 375.22 171.862 375.609 171.973 375.415C172.113 375.276 171.193 374.498 169.798 374.443C168.404 374.359 167.4 375.054 167.512 375.22Z" fill="#303B3F"/>
<path d="M167.261 366.72L167.065 362.775L188.397 362.747V366.303L167.261 366.72Z" fill="#BF383D"/>
<path d="M167.4 370.748C167.4 370.831 168.209 370.97 169.547 370.72C170.217 370.609 170.997 370.387 171.806 369.998C172.196 369.831 172.615 369.609 173.033 369.331C173.228 369.22 173.451 369.081 173.674 368.831C173.897 368.609 174.037 368.053 173.758 367.72C173.535 367.387 173.144 367.248 172.838 367.248C172.503 367.248 172.252 367.303 172.029 367.359C171.555 367.47 171.109 367.637 170.691 367.831C169.882 368.22 169.213 368.692 168.711 369.165C167.735 370.081 167.4 370.859 167.456 370.915C167.567 370.97 168.041 370.331 169.045 369.553C169.547 369.165 170.189 368.776 170.969 368.442C171.332 368.303 171.75 368.164 172.196 368.053C172.642 367.942 173.033 367.914 173.144 368.137C173.2 368.192 173.2 368.22 173.117 368.359C173.005 368.498 172.838 368.609 172.642 368.748C172.252 368.998 171.89 369.22 171.499 369.387C170.746 369.776 170.049 370.026 169.436 370.22C168.209 370.581 167.4 370.637 167.4 370.748Z" fill="#303B3F"/>
<path d="M167.679 371.054C167.735 371.081 168.153 370.331 168.209 368.97C168.237 368.303 168.153 367.47 167.902 366.609C167.763 366.192 167.567 365.748 167.344 365.331C167.066 364.914 166.759 364.331 165.95 364.247C165.532 364.247 165.169 364.581 165.058 364.859C164.918 365.164 164.891 365.386 164.835 365.636C164.779 366.164 164.779 366.637 164.863 367.109C165.002 367.998 165.392 368.776 165.811 369.303C166.647 370.415 167.54 370.637 167.54 370.581C167.623 370.47 166.87 370.081 166.229 369.026C165.894 368.498 165.616 367.803 165.532 366.998C165.476 366.609 165.476 366.192 165.56 365.775C165.616 365.303 165.783 364.942 165.95 364.97C166.173 364.97 166.536 365.303 166.703 365.664C166.926 366.053 167.121 366.442 167.261 366.831C167.54 367.609 167.651 368.359 167.707 368.97C167.763 370.22 167.54 371.026 167.679 371.054Z" fill="#303B3F"/>
<path d="M208.586 344.996L225.986 358.692C225.986 358.692 217.844 380.943 220.8 383.777L248.712 351.108L222.473 328.634L208.586 344.996Z" fill="#E94D5C"/>
<path d="M234.156 350.33C233.571 350.33 232.985 350.108 232.706 349.635C232.26 348.913 232.539 347.635 233.32 347.302C233.571 347.163 233.85 347.107 234.128 347.107C234.658 347.107 235.188 347.33 235.495 347.774C236.025 348.441 235.857 349.552 235.16 350.052C234.881 350.247 234.519 350.33 234.156 350.33Z" fill="#F6BFC8"/>
<path d="M220.8 383.777C219.963 383.249 220.047 382.082 220.158 381.443C220.186 382.554 220.381 383.36 220.8 383.777L248.712 351.108L220.8 383.777ZM248.712 351.108L246.091 348.858L248.712 351.108Z" fill="#FEFEFE"/>
<path d="M220.8 383.777C220.381 383.36 220.186 382.554 220.158 381.443C220.214 381.221 220.242 381.082 220.242 381.082L246.091 348.858L248.712 351.108L220.8 383.777Z" fill="#F6BFC8"/>
<path d="M225.373 359.08C225.54 359.219 226.293 358.469 227.464 358.136C228.635 357.747 229.695 357.942 229.751 357.747C229.834 357.553 228.691 356.997 227.241 357.441C225.819 357.858 225.178 358.997 225.373 359.08Z" fill="#303B3F"/>
<path d="M223.867 363.72C223.979 363.886 224.843 363.414 225.986 363.47C227.13 363.47 227.994 363.942 228.105 363.775C228.273 363.636 227.408 362.747 225.986 362.72C224.592 362.692 223.728 363.581 223.867 363.72Z" fill="#303B3F"/>
<path d="M226.321 369.165C226.488 369.026 225.875 368.137 224.648 367.803C223.421 367.47 222.417 367.914 222.5 368.109C222.556 368.303 223.449 368.22 224.452 368.498C225.456 368.776 226.181 369.303 226.321 369.165Z" fill="#303B3F"/>
<path d="M221.748 355.525C221.943 355.58 222.361 354.664 223.198 353.802C224.007 352.941 224.899 352.497 224.843 352.302C224.787 352.108 223.616 352.302 222.668 353.302C221.692 354.302 221.553 355.497 221.748 355.525Z" fill="#303B3F"/>
<path d="M228.663 333.94L225.986 331.662V331.634L228.663 333.94Z" fill="#BDBBBA"/>
<path d="M215.139 350.135L212.016 347.691L225.986 331.662L228.663 333.94L228.691 333.968L215.139 350.135Z" fill="#BF383D"/>
<path d="M218.29 352.691C218.346 352.747 218.987 352.191 219.685 351.052C220.019 350.469 220.354 349.747 220.605 348.885C220.744 348.469 220.828 347.996 220.912 347.524C220.939 347.302 220.995 347.024 220.939 346.691C220.939 346.385 220.605 345.913 220.159 345.913C219.768 345.857 219.406 346.08 219.183 346.302C218.987 346.524 218.876 346.774 218.764 346.996C218.541 347.413 218.374 347.858 218.235 348.302C217.984 349.163 217.928 349.969 217.956 350.635C218.012 351.997 218.374 352.775 218.458 352.747C218.569 352.719 218.374 351.913 218.458 350.663C218.513 350.024 218.625 349.274 218.876 348.496C219.015 348.108 219.183 347.719 219.406 347.302C219.601 346.885 219.852 346.58 220.075 346.635C220.159 346.663 220.187 346.663 220.242 346.83C220.27 346.969 220.242 347.191 220.214 347.441C220.131 347.885 220.047 348.302 219.963 348.719C219.768 349.524 219.489 350.219 219.211 350.802C218.681 351.969 218.207 352.608 218.29 352.691Z" fill="#303B3F"/>
<path d="M218.681 352.691C218.764 352.636 218.458 351.83 217.482 350.913C216.98 350.441 216.31 349.969 215.474 349.608C215.084 349.413 214.609 349.274 214.135 349.163C213.634 349.08 213.02 348.969 212.407 349.524C212.128 349.83 212.156 350.302 212.295 350.58C212.407 350.886 212.602 351.052 212.741 351.274C213.076 351.663 213.466 351.969 213.857 352.191C214.637 352.691 215.474 352.913 216.143 352.941C217.537 353.025 218.29 352.525 218.262 352.469C218.235 352.33 217.426 352.636 216.199 352.441C215.585 352.33 214.888 352.108 214.219 351.636C213.884 351.413 213.578 351.136 213.299 350.802C212.992 350.469 212.825 350.08 212.964 349.997C213.104 349.83 213.606 349.774 213.996 349.885C214.442 349.969 214.86 350.08 215.223 350.219C216.004 350.524 216.645 350.913 217.147 351.302C218.151 352.052 218.597 352.747 218.681 352.691Z" fill="#303B3F"/>
<path d="M160.318 264.963C160.318 264.963 161.461 212.209 160.318 212.209C159.146 212.209 151.004 207.57 151.004 207.57L140.798 285.964C140.798 285.964 139.878 294.77 150.809 300.965C161.74 307.16 210.622 350.469 210.622 350.469L227.157 330.384C227.157 330.384 195.006 296.993 181.845 285.964C171.583 277.325 160.318 264.963 160.318 264.963Z" fill="#303B3F"/>
<path d="M190.266 252.684L191.381 244.323C191.381 244.323 199.44 227.432 200.583 220.21C201.754 212.987 200.974 197.43 200.974 197.43H150.112C150.112 197.43 150.335 254.629 156.47 270.685C156.47 270.685 159.593 301.41 160.039 303.993C161.015 309.466 164.417 365.386 164.417 365.386L190.071 364.442C190.071 364.442 192.274 313.022 190.517 298.437C189.625 291.215 189.206 283.492 189.011 277.13C188.76 268.963 189.178 260.796 190.266 252.684Z" fill="#303B3F"/>
<path d="M151.506 214.126C151.506 214.126 151.534 214.209 151.534 214.376C151.562 214.57 151.562 214.793 151.59 215.098C151.617 215.793 151.673 216.737 151.729 217.96C151.813 220.432 152.008 223.988 152.259 228.405C152.761 237.239 153.709 249.434 155.131 262.852C156.525 276.269 158.003 288.409 159.091 297.187C159.648 301.549 160.067 305.077 160.373 307.577C160.513 308.771 160.624 309.744 160.708 310.41C160.736 310.716 160.764 310.966 160.792 311.16C160.792 311.327 160.792 311.41 160.792 311.41C160.792 311.41 160.764 311.327 160.736 311.16C160.708 310.966 160.652 310.716 160.596 310.438C160.513 309.744 160.373 308.799 160.178 307.605C159.843 305.132 159.369 301.576 158.756 297.243C157.585 288.464 156.023 276.325 154.629 262.907C153.235 249.462 152.342 237.266 151.896 228.433C151.701 224.016 151.562 220.432 151.534 217.96C151.506 216.737 151.506 215.793 151.478 215.098C151.478 214.82 151.478 214.57 151.478 214.376C151.506 214.209 151.506 214.126 151.506 214.126Z" fill="#405C68"/>
<path d="M188.955 281.825C188.983 281.825 189.039 282.103 189.123 282.659C189.206 283.242 189.318 284.048 189.457 285.048C189.708 287.131 190.015 290.159 190.322 293.882C190.907 301.354 191.381 311.688 191.549 323.106C191.688 334.551 191.493 344.885 191.102 352.386C190.907 356.108 190.656 359.136 190.461 361.22C190.35 362.22 190.266 363.025 190.182 363.609C190.126 364.164 190.071 364.442 190.071 364.442C190.043 364.442 190.043 364.164 190.099 363.609C190.126 363.025 190.182 362.22 190.266 361.192C190.405 359.108 190.601 356.108 190.74 352.358C191.075 344.885 191.186 334.551 191.047 323.106C190.879 311.716 190.489 301.382 189.959 293.909C189.708 290.159 189.457 287.159 189.262 285.075C189.151 284.075 189.067 283.27 189.011 282.686C188.955 282.131 188.955 281.825 188.955 281.825Z" fill="#405C68"/>
<path d="M198.966 91.0341C198.966 91.0341 207.303 93.2565 209.06 105.618C210.845 117.953 207.554 121.508 207.554 121.508C207.554 121.508 208.921 98.479 198.575 95.3399L198.966 91.4786V91.0341Z" fill="#303B3F"/>
<path d="M142.248 131.398L99.2778 130.565L99.7798 132.648L142.025 133.259L142.248 131.398Z" fill="#303B3F"/>
<path d="M194.365 94.9233C192.747 94.4788 191.046 94.701 189.541 95.34C186.055 96.8123 179.669 101.007 179.223 112.841C178.498 131.981 178.498 131.981 178.498 131.981L205.965 135.565C205.965 135.565 208.307 98.618 194.365 94.9233Z" fill="#4E35CB"/>
<path d="M143.782 135.454L178.638 145.899L179.14 131.926L200.025 134.954L198.854 157.678C198.603 164.345 193.919 170.04 187.394 171.54C183.741 172.401 179.92 171.845 176.658 170.012L139.627 149.038L143.782 135.454Z" fill="#F8C0A9"/>
<path d="M205.965 135.565C205.965 135.565 205.965 135.454 205.965 135.232C205.937 135.009 205.937 134.704 205.909 134.315C205.882 133.481 205.854 132.315 205.798 130.815C205.686 127.759 205.547 123.397 205.38 118.008C205.296 115.314 205.212 112.369 205.129 109.23C205.101 108.424 205.073 107.619 205.045 106.813C205.017 106.396 204.961 106.007 204.934 105.591C204.85 105.202 204.794 104.785 204.683 104.396C204.264 102.785 203.484 101.201 202.396 99.8125C200.249 97.0901 196.735 95.0066 192.887 94.9233C190.991 94.8955 189.067 95.4788 187.394 96.5067C185.693 97.5345 184.271 99.0069 183.128 100.701C181.455 103.118 180.534 105.896 179.977 108.674C179.447 111.452 179.252 114.23 179.14 116.925C178.973 122.314 178.833 127.37 178.694 131.981L178.527 131.787C186.753 132.898 193.584 133.815 198.381 134.482C200.779 134.815 202.647 135.065 203.985 135.259C204.599 135.343 205.101 135.426 205.463 135.482C205.798 135.537 205.965 135.565 205.965 135.565C205.993 135.565 205.826 135.565 205.491 135.537C205.129 135.482 204.655 135.426 204.041 135.37C202.731 135.204 200.862 134.982 198.492 134.676C193.64 134.093 186.753 133.231 178.471 132.176H178.276V131.981C178.387 127.37 178.471 122.286 178.666 116.897C178.778 114.202 178.945 111.397 179.503 108.563C180.06 105.757 181.008 102.896 182.709 100.424C183.88 98.7013 185.358 97.1734 187.115 96.09C188.872 95.0066 190.907 94.3954 192.915 94.451C196.931 94.5343 200.528 96.7012 202.758 99.5347C203.874 100.979 204.683 102.618 205.101 104.285C205.212 104.702 205.268 105.118 205.352 105.535C205.408 105.952 205.435 106.368 205.491 106.785C205.491 107.619 205.519 108.424 205.519 109.23C205.603 112.424 205.659 115.397 205.714 118.119C205.798 123.509 205.882 127.87 205.937 130.926C205.965 132.398 205.965 133.565 205.993 134.398C205.993 134.759 205.993 135.065 205.993 135.287C205.993 135.482 205.993 135.565 205.965 135.565Z" fill="#D57432"/>
<path d="M144.479 135.871L136.113 129.703C134.58 128.564 132.21 128.814 130.313 128.648C126.549 128.287 120.386 130.565 120.135 130.954L122.673 132.954L106.388 132.454C106.388 132.454 107.782 135.843 112.356 136.204C112.356 136.204 112.857 139.843 117.598 140.538C117.598 140.538 118.825 143.51 121.446 144.399C121.446 144.399 121.976 147.705 126.159 147.51L140.408 149.121L144.479 135.871Z" fill="#F8C0A9"/>
<path d="M122.534 136.787C122.506 136.926 120.219 136.898 117.375 136.732C114.531 136.565 112.244 136.315 112.244 136.204C112.244 136.065 114.559 136.093 117.403 136.259C120.247 136.426 122.534 136.648 122.534 136.787Z" fill="#F39B70"/>
<path d="M126.633 140.704C126.633 140.843 124.625 140.954 122.143 140.954C119.634 140.954 117.626 140.843 117.626 140.704C117.626 140.565 119.634 140.454 122.143 140.454C124.625 140.454 126.633 140.565 126.633 140.704Z" fill="#F39B70"/>
<path d="M131.066 144.371C131.066 144.51 129.058 144.621 126.549 144.621C124.067 144.621 122.059 144.51 122.059 144.371C122.059 144.26 124.067 144.149 126.549 144.149C129.058 144.149 131.066 144.26 131.066 144.371Z" fill="#F39B70"/>
<path d="M180.924 152.983C180.813 153.038 180.06 151.538 179.363 149.594C178.694 147.621 178.331 145.982 178.471 145.955C178.61 145.927 179.168 147.482 179.837 149.427C180.506 151.372 181.064 152.927 180.924 152.983Z" fill="#F39B70"/>
<path d="M183.462 151.649C183.35 151.733 182.207 150.372 180.813 148.705C179.419 147.038 178.303 145.705 178.387 145.593C178.499 145.51 179.781 146.705 181.203 148.399C182.598 150.066 183.546 151.566 183.462 151.649Z" fill="#F39B70"/>
</g>
<defs>
<clipPath id="clip0">
<rect width="517" height="400" fill="white"/>
</clipPath>
</defs>
</svg>
